<svg xmlns="http://www.w3.org/2000/svg" xmlns:xlink="http://www.w3.org/1999/xlink" contentStyleType="text/css" height="448px" preserveAspectRatio="none" style="width:774px;height:448px;background:#FFFFFF;" version="1.1" viewBox="0 0 774 448" width="774px" zoomAndPan="magnify"><defs/><g><path d="M19.5,7 L190.9687,7 A12.5,12.5 0 0 1 203.4687,19.5 L203.4687,33.2969 L7,33.2969 L7,19.5 A12.5,12.5 0 0 1 19.5,7 " fill="#F1F1F1" style="stroke:#F1F1F1;stroke-width:1.0;"/><rect fill="none" height="435.2969" rx="12.5" ry="12.5" style="stroke:#181818;stroke-width:0.5;" width="196.4687" x="7" y="7"/><line style="stroke:#181818;stroke-width:0.5;" x1="7" x2="203.4687" y1="33.2969" y2="33.2969"/><text fill="#000000" font-family="sans-serif" font-size="14" lengthAdjust="spacing" textLength="59.7188" x="75.375" y="24.9951">Pasajero</text><ellipse cx="76.04" cy="54.2969" fill="#222222" rx="10" ry="10" style="stroke:#222222;stroke-width:1.0;"/><g id="Pasajero.EnParada"><rect fill="#F1F1F1" height="50" rx="12.5" ry="12.5" style="stroke:#181818;stroke-width:0.5;" width="86.541" x="32.77" y="101.2969"/><line style="stroke:#181818;stroke-width:0.5;" x1="32.77" x2="119.311" y1="127.5938" y2="127.5938"/><text fill="#000000" font-family="sans-serif" font-size="14" lengthAdjust="spacing" textLength="66.541" x="42.77" y="119.292">EnParada</text></g><g id="Pasajero.EnPago"><rect fill="#F1F1F1" height="50" rx="12.5" ry="12.5" style="stroke:#181818;stroke-width:0.5;" width="72.1924" x="39.95" y="204.2969"/><line style="stroke:#181818;stroke-width:0.5;" x1="39.95" x2="112.1424" y1="230.5938" y2="230.5938"/><text fill="#000000" font-family="sans-serif" font-size="14" lengthAdjust="spacing" textLength="52.1924" x="49.95" y="222.292">EnPago</text></g><g id="Pasajero.EnTransporte"><rect fill="#F1F1F1" height="50" rx="12.5" ry="12.5" style="stroke:#181818;stroke-width:0.5;" width="114.083" x="19" y="307.2969"/><line style="stroke:#181818;stroke-width:0.5;" x1="19" x2="133.083" y1="333.5938" y2="333.5938"/><text fill="#000000" font-family="sans-serif" font-size="14" lengthAdjust="spacing" textLength="94.083" x="29" y="325.292">EnTransporte</text></g><ellipse cx="76.04" cy="421.2969" fill="none" rx="11" ry="11" style="stroke:#222222;stroke-width:1.0;"/><ellipse cx="76.04" cy="421.2969" fill="#222222" rx="6" ry="6" style="stroke:#222222;stroke-width:1.0;"/><!--link *start*Pasajero to EnParada--><g id="link_*start*Pasajero_EnParada"><path d="M76.04,64.7369 C76.04,73.9969 76.04,82.4869 76.04,94.9769 " fill="none" id="*start*Pasajero-to-EnParada" style="stroke:#181818;stroke-width:1.0;"/><polygon fill="#181818" points="76.04,100.9769,80.04,91.9769,76.04,95.9769,72.04,91.9769,76.04,100.9769" style="stroke:#181818;stroke-width:1.0;"/></g><!--link EnParada to EnPago--><g id="link_EnParada_EnPago"><path d="M40.96,151.3669 C35.71,156.6269 31.06,162.6369 28.04,169.2969 C22.31,181.9269 25.053,189.9395 35.353,199.9295 " fill="none" id="EnParada-to-EnPago" style="stroke:#181818;stroke-width:1.0;"/><polygon fill="#181818" points="39.66,204.1069,35.9844,194.9696,36.0709,200.6258,30.4147,200.7122,39.66,204.1069" style="stroke:#181818;stroke-width:1.0;"/><text fill="#000000" font-family="sans-serif" font-size="13" lengthAdjust="spacing" textLength="74.5786" x="29.04" y="182.3638">llega el bus</text></g><!--link EnPago to EnParada--><g id="link_EnPago_EnParada"><path d="M96.68,203.9769 C103.08,193.5769 107.62,181.1269 104.04,169.2969 C102.16,163.0869 102.2182,162.0497 98.7182,156.4697 " fill="none" id="EnPago-to-EnParada" style="stroke:#181818;stroke-width:1.0;"/><polygon fill="#181818" points="95.53,151.3869,96.9237,161.1366,98.1868,155.6226,103.7008,156.8857,95.53,151.3869" style="stroke:#181818;stroke-width:1.0;"/><text fill="#000000" font-family="sans-serif" font-size="13" lengthAdjust="spacing" textLength="31.9858" x="106.04" y="182.3638">error</text></g><!--link EnPago to EnTransporte--><g id="link_EnPago_EnTransporte"><path d="M76.04,254.7469 C76.04,270.6269 76.04,285.2369 76.04,301.0769 " fill="none" id="EnPago-to-EnTransporte" style="stroke:#181818;stroke-width:1.0;"/><polygon fill="#181818" points="76.04,307.0769,80.04,298.0769,76.04,302.0769,72.04,298.0769,76.04,307.0769" style="stroke:#181818;stroke-width:1.0;"/><text fill="#000000" font-family="sans-serif" font-size="13" lengthAdjust="spacing" textLength="116.4287" x="77.04" y="285.3638">pago satisfactorio</text></g><!--link EnTransporte to *end*Pasajero--><g id="link_EnTransporte_*end*Pasajero"><path d="M76.04,357.5269 C76.04,374.8269 76.04,391.2169 76.04,404.0469 " fill="none" id="EnTransporte-to-*end*Pasajero" style="stroke:#181818;stroke-width:1.0;"/><polygon fill="#181818" points="76.04,410.0469,80.04,401.0469,76.04,405.0469,72.04,401.0469,76.04,410.0469" style="stroke:#181818;stroke-width:1.0;"/><text fill="#000000" font-family="sans-serif" font-size="13" lengthAdjust="spacing" textLength="99.2075" x="77.04" y="388.3638">llega al destino</text></g><path d="M250.77,44.5 L507.6975,44.5 A12.5,12.5 0 0 1 520.1975,57 L520.1975,70.7969 L238.27,70.7969 L238.27,57 A12.5,12.5 0 0 1 250.77,44.5 " fill="#F1F1F1" style="stroke:#F1F1F1;stroke-width:1.0;"/><rect fill="none" height="360.2969" rx="12.5" ry="12.5" style="stroke:#181818;stroke-width:0.5;" width="281.9275" x="238.27" y="44.5"/><line style="stroke:#181818;stroke-width:0.5;" x1="238.27" x2="520.1975" y1="70.7969" y2="70.7969"/><text fill="#000000" font-family="sans-serif" font-size="14" lengthAdjust="spacing" textLength="59.9785" x="349.2445" y="62.4951">Vehiculo</text><g id="Vehiculo.fueraServicio"><rect fill="#F1F1F1" height="50" rx="12.5" ry="12.5" style="stroke:#181818;stroke-width:0.5;" width="140.2646" x="252.86" y="138.7969"/><line style="stroke:#181818;stroke-width:0.5;" x1="252.86" x2="393.1246" y1="165.0938" y2="165.0938"/><text fill="#000000" font-family="sans-serif" font-size="14" lengthAdjust="spacing" textLength="120.2646" x="262.86" y="156.792">Fuera de servicio</text></g><g id="Vehiculo.enRuta"><rect fill="#F1F1F1" height="50" rx="12.5" ry="12.5" style="stroke:#181818;stroke-width:0.5;" width="70.8662" x="287.55" y="241.7969"/><line style="stroke:#181818;stroke-width:0.5;" x1="287.55" x2="358.4162" y1="268.0938" y2="268.0938"/><text fill="#000000" font-family="sans-serif" font-size="14" lengthAdjust="spacing" textLength="50.8662" x="297.55" y="259.792">En ruta</text></g><g id="Vehiculo.enParada"><rect fill="#F1F1F1" height="50" rx="12.5" ry="12.5" style="stroke:#181818;stroke-width:0.5;" width="91.4355" x="250.27" y="344.7969"/><line style="stroke:#181818;stroke-width:0.5;" x1="250.27" x2="341.7055" y1="371.0938" y2="371.0938"/><text fill="#000000" font-family="sans-serif" font-size="14" lengthAdjust="spacing" textLength="71.4355" x="260.27" y="362.792">En parada</text></g><ellipse cx="322.99" cy="91.7969" fill="#222222" rx="10" ry="10" style="stroke:#222222;stroke-width:1.0;"/><ellipse cx="428.99" cy="369.7969" fill="none" rx="11" ry="11" style="stroke:#222222;stroke-width:1.0;"/><ellipse cx="428.99" cy="369.7969" fill="#222222" rx="6" ry="6" style="stroke:#222222;stroke-width:1.0;"/><!--link *start*Vehiculo to fueraServicio--><g id="link_*start*Vehiculo_fueraServicio"><path d="M322.99,102.2369 C322.99,111.4969 322.99,119.9869 322.99,132.4769 " fill="none" id="*start*Vehiculo-to-fueraServicio" style="stroke:#181818;stroke-width:1.0;"/><polygon fill="#181818" points="322.99,138.4769,326.99,129.4769,322.99,133.4769,318.99,129.4769,322.99,138.4769" style="stroke:#181818;stroke-width:1.0;"/></g><!--link fueraServicio to enRuta--><g id="link_fueraServicio_enRuta"><path d="M322.99,189.2469 C322.99,205.1269 322.99,219.7369 322.99,235.5769 " fill="none" id="fueraServicio-to-enRuta" style="stroke:#181818;stroke-width:1.0;"/><polygon fill="#181818" points="322.99,241.5769,326.99,232.5769,322.99,236.5769,318.99,232.5769,322.99,241.5769" style="stroke:#181818;stroke-width:1.0;"/><text fill="#000000" font-family="sans-serif" font-size="13" lengthAdjust="spacing" textLength="64.9683" x="323.99" y="219.8638">inicia ruta</text></g><!--link enRuta to enParada--><g id="link_enRuta_enParada"><path d="M287.26,288.7469 C280.29,294.6169 273.92,301.6569 269.99,309.7969 C264.53,321.0869 265.7017,328.6669 272.2517,339.3869 " fill="none" id="enRuta-to-enParada" style="stroke:#181818;stroke-width:1.0;"/><polygon fill="#181818" points="275.38,344.5069,274.1008,334.7414,272.7731,340.2403,267.2742,338.9125,275.38,344.5069" style="stroke:#181818;stroke-width:1.0;"/><text fill="#000000" font-family="sans-serif" font-size="13" lengthAdjust="spacing" textLength="29.5293" x="270.99" y="322.8638">para</text></g><!--link enParada to enRuta--><g id="link_enParada_enRuta"><path d="M302.46,344.5769 C306.7,328.7369 310.6622,313.9238 314.9022,298.0438 " fill="none" id="enParada-to-enRuta" style="stroke:#181818;stroke-width:1.0;"/><polygon fill="#181818" points="316.45,292.2469,310.2637,299.9104,315.1602,297.0776,317.9929,301.9741,316.45,292.2469" style="stroke:#181818;stroke-width:1.0;"/><text fill="#000000" font-family="sans-serif" font-size="13" lengthAdjust="spacing" textLength="81.3643" x="312.99" y="322.8638">sigue la ruta</text></g><!--link enRuta to *end*Vehiculo--><g id="link_enRuta_*end*Vehiculo"><path d="M358.87,282.1269 C372.66,288.9569 387.78,298.1969 398.99,309.7969 C412.88,324.1769 419.8419,340.5784 424.0919,353.2484 " fill="none" id="enRuta-to-*end*Vehiculo" style="stroke:#181818;stroke-width:1.0;"/><polygon fill="#181818" points="426,358.9369,426.9301,349.132,424.4099,354.1965,419.3455,351.6762,426,358.9369" style="stroke:#181818;stroke-width:1.0;"/><text fill="#000000" font-family="sans-serif" font-size="13" lengthAdjust="spacing" textLength="99.2075" x="410.99" y="322.8638">llega al destino</text></g><path d="M567.71,58.5 L748.7552,58.5 A12.5,12.5 0 0 1 761.2552,71 L761.2552,84.7969 L555.21,84.7969 L555.21,71 A12.5,12.5 0 0 1 567.71,58.5 " fill="#F1F1F1" style="stroke:#F1F1F1;stroke-width:1.0;"/><rect fill="none" height="332.2969" rx="12.5" ry="12.5" style="stroke:#181818;stroke-width:0.5;" width="206.0452" x="555.21" y="58.5"/><line style="stroke:#181818;stroke-width:0.5;" x1="555.21" x2="761.2552" y1="84.7969" y2="84.7969"/><text fill="#000000" font-family="sans-serif" font-size="14" lengthAdjust="spacing" textLength="72.4814" x="621.9919" y="76.4951">Conductor</text><g id="Conductor.parado"><rect fill="#F1F1F1" height="50" rx="12.5" ry="12.5" style="stroke:#181818;stroke-width:0.5;" width="68.8086" x="604.02" y="152.7969"/><line style="stroke:#181818;stroke-width:0.5;" x1="604.02" x2="672.8286" y1="179.0938" y2="179.0938"/><text fill="#000000" font-family="sans-serif" font-size="14" lengthAdjust="spacing" textLength="48.8086" x="614.02" y="170.792">Parado</text></g><g id="Conductor.conduccion"><rect fill="#F1F1F1" height="50" rx="12.5" ry="12.5" style="stroke:#181818;stroke-width:0.5;" width="121.7871" x="577.54" y="255.7969"/><line style="stroke:#181818;stroke-width:0.5;" x1="577.54" x2="699.3271" y1="282.0938" y2="282.0938"/><text fill="#000000" font-family="sans-serif" font-size="14" lengthAdjust="spacing" textLength="101.7871" x="587.54" y="273.792">En conducci&#243;n</text></g><ellipse cx="638.43" cy="105.7969" fill="#222222" rx="10" ry="10" style="stroke:#222222;stroke-width:1.0;"/><ellipse cx="638.43" cy="369.7969" fill="none" rx="11" ry="11" style="stroke:#222222;stroke-width:1.0;"/><ellipse cx="638.43" cy="369.7969" fill="#222222" rx="6" ry="6" style="stroke:#222222;stroke-width:1.0;"/><!--link *start*Conductor to parado--><g id="link_*start*Conductor_parado"><path d="M638.43,116.2369 C638.43,125.4969 638.43,133.9869 638.43,146.4769 " fill="none" id="*start*Conductor-to-parado" style="stroke:#181818;stroke-width:1.0;"/><polygon fill="#181818" points="638.43,152.4769,642.43,143.4769,638.43,147.4769,634.43,143.4769,638.43,152.4769" style="stroke:#181818;stroke-width:1.0;"/></g><!--link parado to conduccion--><g id="link_parado_conduccion"><path d="M603.62,192.8469 C591.86,199.4669 580.05,208.6469 573.43,220.7969 C566.21,234.0469 569.5087,242.2654 582.1387,251.7854 " fill="none" id="parado-to-conduccion" style="stroke:#181818;stroke-width:1.0;"/><polygon fill="#181818" points="586.93,255.3969,582.1507,246.7854,582.9372,252.3873,577.3353,253.1738,586.93,255.3969" style="stroke:#181818;stroke-width:1.0;"/><text fill="#000000" font-family="sans-serif" font-size="13" lengthAdjust="spacing" textLength="108.894" x="574.43" y="233.8638">comienza la ruta</text></g><!--link conduccion to parado--><g id="link_conduccion_parado"><path d="M672.56,255.3769 C682.22,245.3569 688.82,233.2069 683.43,220.7969 C680.62,214.3269 680.377,212.781 675.457,207.541 " fill="none" id="conduccion-to-parado" style="stroke:#181818;stroke-width:1.0;"/><polygon fill="#181818" points="671.35,203.1669,674.5944,212.466,674.7725,206.812,680.4265,206.99,671.35,203.1669" style="stroke:#181818;stroke-width:1.0;"/><text fill="#000000" font-family="sans-serif" font-size="13" lengthAdjust="spacing" textLength="65.8252" x="685.43" y="233.8638">incidencia</text></g><!--link conduccion to *end*Conductor--><g id="link_conduccion_*end*Conductor"><path d="M638.43,306.0269 C638.43,323.3269 638.43,339.7169 638.43,352.5469 " fill="none" id="conduccion-to-*end*Conductor" style="stroke:#181818;stroke-width:1.0;"/><polygon fill="#181818" points="638.43,358.5469,642.43,349.5469,638.43,353.5469,634.43,349.5469,638.43,358.5469" style="stroke:#181818;stroke-width:1.0;"/><text fill="#000000" font-family="sans-serif" font-size="13" lengthAdjust="spacing" textLength="99.2075" x="639.43" y="336.8638">llega al destino</text></g><!--SRC=[XL6xJWCn4EplArOfaV83AMXGg2D0D175ujiSHiO-UMqA45_59_1Zs6lVnPS4SOLbpym-Peu31e8TChwITvyTf6z_zGJhzJLixGuzzYZWz9YPmS46ZA41WGmyHvvbYMdBauoyT_wSV_1eUNG-RR21CUECGVC1LN1UkrhGg79PtcuQZ0Pwug2jwxuw5YkFzA9LDDLAmLQtaJmcAJ3vTwsqMm4o739wNv5MlhNWOq0HaRrBrnDs56ELRqAQaZlll414KnedAzec36MYI2jHD7E4UMIbcnynDs4zH09pkSq_aTqusySS-I8pcLA24hkd2IcfKlhdsufeUZkxYAAfBLT1Z-Aqc79lckm7BjPl5CSsafRIFQNZekmlfxy0]--></g></svg>