<svg xmlns="http://www.w3.org/2000/svg" xmlns:xlink="http://www.w3.org/1999/xlink" contentStyleType="text/css" height="516px" preserveAspectRatio="none" style="width:389px;height:516px;background:#FFFFFF;" version="1.1" viewBox="0 0 389 516" width="389px" zoomAndPan="magnify"><defs/><g><!--class Vehiculo--><g id="elem_Vehiculo"><rect codeLine="1" fill="#F1F1F1" height="48" id="Vehiculo" rx="2.5" ry="2.5" style="stroke:#181818;stroke-width:0.5;" width="91.9785" x="135.25" y="7"/><ellipse cx="150.25" cy="23" fill="#ADD1B2" rx="11" ry="11" style="stroke:#181818;stroke-width:1.0;"/><path d="M153.2188,28.6406 Q152.6406,28.9375 152,29.0781 Q151.3594,29.2344 150.6563,29.2344 Q148.1563,29.2344 146.8281,27.5938 Q145.5156,25.9375 145.5156,22.8125 Q145.5156,19.6875 146.8281,18.0313 Q148.1563,16.375 150.6563,16.375 Q151.3594,16.375 152,16.5313 Q152.6563,16.6875 153.2188,16.9844 L153.2188,19.7031 Q152.5938,19.125 152,18.8594 Q151.4063,18.5781 150.7813,18.5781 Q149.4375,18.5781 148.75,19.6563 Q148.0625,20.7188 148.0625,22.8125 Q148.0625,24.9063 148.75,25.9844 Q149.4375,27.0469 150.7813,27.0469 Q151.4063,27.0469 152,26.7813 Q152.5938,26.5 153.2188,25.9219 L153.2188,28.6406 Z " fill="#000000"/><text fill="#000000" font-family="sans-serif" font-size="14" lengthAdjust="spacing" textLength="59.9785" x="164.25" y="27.8467">Vehiculo</text><line style="stroke:#181818;stroke-width:0.5;" x1="136.25" x2="226.2285" y1="39" y2="39"/><line style="stroke:#181818;stroke-width:0.5;" x1="136.25" x2="226.2285" y1="47" y2="47"/></g><!--class Conductor--><g id="elem_Conductor"><rect codeLine="4" fill="#F1F1F1" height="48" id="Conductor" rx="2.5" ry="2.5" style="stroke:#181818;stroke-width:0.5;" width="104.4814" x="7" y="132"/><ellipse cx="22" cy="148" fill="#ADD1B2" rx="11" ry="11" style="stroke:#181818;stroke-width:1.0;"/><path d="M24.9688,153.6406 Q24.3906,153.9375 23.75,154.0781 Q23.1094,154.2344 22.4063,154.2344 Q19.9063,154.2344 18.5781,152.5938 Q17.2656,150.9375 17.2656,147.8125 Q17.2656,144.6875 18.5781,143.0313 Q19.9063,141.375 22.4063,141.375 Q23.1094,141.375 23.75,141.5313 Q24.4063,141.6875 24.9688,141.9844 L24.9688,144.7031 Q24.3438,144.125 23.75,143.8594 Q23.1563,143.5781 22.5313,143.5781 Q21.1875,143.5781 20.5,144.6563 Q19.8125,145.7188 19.8125,147.8125 Q19.8125,149.9063 20.5,150.9844 Q21.1875,152.0469 22.5313,152.0469 Q23.1563,152.0469 23.75,151.7813 Q24.3438,151.5 24.9688,150.9219 L24.9688,153.6406 Z " fill="#000000"/><text fill="#000000" font-family="sans-serif" font-size="14" lengthAdjust="spacing" textLength="72.4814" x="36" y="152.8467">Conductor</text><line style="stroke:#181818;stroke-width:0.5;" x1="8" x2="110.4814" y1="164" y2="164"/><line style="stroke:#181818;stroke-width:0.5;" x1="8" x2="110.4814" y1="172" y2="172"/></g><!--class Pasajero--><g id="elem_Pasajero"><rect codeLine="7" fill="#F1F1F1" height="64.2969" id="Pasajero" rx="2.5" ry="2.5" style="stroke:#181818;stroke-width:0.5;" width="165.1797" x="217.65" y="210"/><ellipse cx="266.1305" cy="226" fill="#ADD1B2" rx="11" ry="11" style="stroke:#181818;stroke-width:1.0;"/><path d="M269.0992,231.6406 Q268.5211,231.9375 267.8805,232.0781 Q267.2398,232.2344 266.5367,232.2344 Q264.0367,232.2344 262.7086,230.5938 Q261.3961,228.9375 261.3961,225.8125 Q261.3961,222.6875 262.7086,221.0313 Q264.0367,219.375 266.5367,219.375 Q267.2398,219.375 267.8805,219.5313 Q268.5367,219.6875 269.0992,219.9844 L269.0992,222.7031 Q268.4742,222.125 267.8805,221.8594 Q267.2867,221.5781 266.6617,221.5781 Q265.318,221.5781 264.6305,222.6563 Q263.943,223.7188 263.943,225.8125 Q263.943,227.9063 264.6305,228.9844 Q265.318,230.0469 266.6617,230.0469 Q267.2867,230.0469 267.8805,229.7813 Q268.4742,229.5 269.0992,228.9219 L269.0992,231.6406 Z " fill="#000000"/><text fill="#000000" font-family="sans-serif" font-size="14" lengthAdjust="spacing" textLength="59.7188" x="286.6305" y="230.8467">Pasajero</text><line style="stroke:#181818;stroke-width:0.5;" x1="218.65" x2="381.8297" y1="242" y2="242"/><rect fill="none" height="6" style="stroke:#C82930;stroke-width:1.0;" width="6" x="225.65" y="252.6484"/><text fill="#000000" font-family="sans-serif" font-size="14" lengthAdjust="spacing" textLength="139.1797" x="237.65" y="258.9951">metodoPago: String</text><line style="stroke:#181818;stroke-width:0.5;" x1="218.65" x2="381.8297" y1="266.2969" y2="266.2969"/></g><!--class Ruta--><g id="elem_Ruta"><rect codeLine="11" fill="#F1F1F1" height="80.5938" id="Ruta" rx="2.5" ry="2.5" style="stroke:#181818;stroke-width:0.5;" width="126.9326" x="110.77" y="304.3"/><ellipse cx="153.7887" cy="320.3" fill="#ADD1B2" rx="11" ry="11" style="stroke:#181818;stroke-width:1.0;"/><path d="M156.7574,325.9406 Q156.1793,326.2375 155.5387,326.3781 Q154.898,326.5344 154.1949,326.5344 Q151.6949,326.5344 150.3668,324.8937 Q149.0543,323.2375 149.0543,320.1125 Q149.0543,316.9875 150.3668,315.3312 Q151.6949,313.675 154.1949,313.675 Q154.898,313.675 155.5387,313.8312 Q156.1949,313.9875 156.7574,314.2844 L156.7574,317.0031 Q156.1324,316.425 155.5387,316.1594 Q154.9449,315.8781 154.3199,315.8781 Q152.9762,315.8781 152.2887,316.9562 Q151.6012,318.0187 151.6012,320.1125 Q151.6012,322.2062 152.2887,323.2844 Q152.9762,324.3469 154.3199,324.3469 Q154.9449,324.3469 155.5387,324.0812 Q156.1324,323.8 156.7574,323.2219 L156.7574,325.9406 Z " fill="#000000"/><text fill="#000000" font-family="sans-serif" font-size="14" lengthAdjust="spacing" textLength="32.6689" x="174.015" y="325.1467">Ruta</text><line style="stroke:#181818;stroke-width:0.5;" x1="111.77" x2="236.7026" y1="336.3" y2="336.3"/><rect fill="none" height="6" style="stroke:#C82930;stroke-width:1.0;" width="6" x="118.77" y="346.9484"/><text fill="#000000" font-family="sans-serif" font-size="14" lengthAdjust="spacing" textLength="100.9326" x="130.77" y="353.2951">horario: String</text><rect fill="none" height="6" style="stroke:#C82930;stroke-width:1.0;" width="6" x="118.77" y="363.2453"/><text fill="#000000" font-family="sans-serif" font-size="14" lengthAdjust="spacing" textLength="90.2002" x="130.77" y="369.592">paradas: List</text><line style="stroke:#181818;stroke-width:0.5;" x1="111.77" x2="236.7026" y1="376.8937" y2="376.8937"/></g><!--class Tarifa--><g id="elem_Tarifa"><rect codeLine="16" fill="#F1F1F1" height="48" id="Tarifa" rx="2.5" ry="2.5" style="stroke:#181818;stroke-width:0.5;" width="72.2842" x="138.1" y="461.89"/><ellipse cx="153.1" cy="477.89" fill="#ADD1B2" rx="11" ry="11" style="stroke:#181818;stroke-width:1.0;"/><path d="M156.0688,483.5306 Q155.4906,483.8275 154.85,483.9681 Q154.2094,484.1244 153.5063,484.1244 Q151.0063,484.1244 149.6781,482.4838 Q148.3656,480.8275 148.3656,477.7025 Q148.3656,474.5775 149.6781,472.9213 Q151.0063,471.265 153.5063,471.265 Q154.2094,471.265 154.85,471.4213 Q155.5063,471.5775 156.0688,471.8744 L156.0688,474.5931 Q155.4438,474.015 154.85,473.7494 Q154.2563,473.4681 153.6313,473.4681 Q152.2875,473.4681 151.6,474.5463 Q150.9125,475.6088 150.9125,477.7025 Q150.9125,479.7963 151.6,480.8744 Q152.2875,481.9369 153.6313,481.9369 Q154.2563,481.9369 154.85,481.6713 Q155.4438,481.39 156.0688,480.8119 L156.0688,483.5306 Z " fill="#000000"/><text fill="#000000" font-family="sans-serif" font-size="14" lengthAdjust="spacing" textLength="40.2842" x="167.1" y="482.7367">Tarifa</text><line style="stroke:#181818;stroke-width:0.5;" x1="139.1" x2="209.3842" y1="493.89" y2="493.89"/><line style="stroke:#181818;stroke-width:0.5;" x1="139.1" x2="209.3842" y1="501.89" y2="501.89"/></g><!--link Conductor to Ruta--><g id="link_Conductor_Ruta"><path codeLine="18" d="M69.46,180.23 C80.49,204.44 99.19,243.14 119.24,274.3 C125.64,284.24 129.4739,289.7436 136.8639,299.1936 " fill="none" id="Conductor-to-Ruta" style="stroke:#181818;stroke-width:1.0;"/><polygon fill="#181818" points="140.56,303.92,138.1668,294.3663,137.4799,299.9813,131.8649,299.2945,140.56,303.92" style="stroke:#181818;stroke-width:1.0;"/><text fill="#000000" font-family="sans-serif" font-size="13" lengthAdjust="spacing" textLength="34.874" x="120.24" y="246.7169">sigue</text></g><!--link Vehiculo to Conductor--><g id="link_Vehiculo_Conductor"><path codeLine="19" d="M136.6,55.44 C123.57,63.64 109.96,73.67 99.24,85 C86.35,98.62 75.99,117.16 69.05,131.74 " fill="none" id="Vehiculo-Conductor" style="stroke:#181818;stroke-width:1.0;"/><text fill="#000000" font-family="sans-serif" font-size="13" lengthAdjust="spacing" textLength="54.9771" x="100.24" y="98.0669">conduce</text></g><!--link Vehiculo to Pasajero--><g id="link_Vehiculo_Pasajero"><path codeLine="20" d="M194.43,55.18 C215.85,92.83 258.23,167.32 282.35,209.71 " fill="none" id="Vehiculo-Pasajero" style="stroke:#181818;stroke-width:1.0;"/><text fill="#000000" font-family="sans-serif" font-size="13" lengthAdjust="spacing" textLength="68.0342" x="221.24" y="98.0669">transporta</text></g><!--link Conductor to Tarifa--><g id="link_Conductor_Tarifa"><path codeLine="21" d="M52.43,180.36 C41.26,223.24 23.32,316.38 55.24,384.89 C72.16,421.22 104.3514,445.9692 132.7114,462.9392 " fill="none" id="Conductor-to-Tarifa" style="stroke:#181818;stroke-width:1.0;"/><polygon fill="#181818" points="137.86,466.02,132.1909,457.9663,133.5695,463.4526,128.0832,464.8312,137.86,466.02" style="stroke:#181818;stroke-width:1.0;"/><text fill="#000000" font-family="sans-serif" font-size="13" lengthAdjust="spacing" textLength="36.6641" x="56.24" y="349.1569">cobra</text></g><!--link Vehiculo to Ruta--><g id="link_Vehiculo_Ruta"><path codeLine="22" d="M180.71,55.42 C179.52,108.42 176.61,238.06 175.13,303.87 " fill="none" id="Vehiculo-Ruta" style="stroke:#181818;stroke-width:1.0;"/><text fill="#000000" font-family="sans-serif" font-size="13" lengthAdjust="spacing" textLength="34.874" x="180.24" y="160.5669">sigue</text></g><!--link Pasajero to Tarifa--><g id="link_Pasajero_Tarifa"><path codeLine="23" d="M293.97,274.68 C284.78,314.59 264.57,383.92 227.24,431.89 C219.17,442.26 213.5237,448.5193 204.4237,457.3593 " fill="none" id="Pasajero-to-Tarifa" style="stroke:#181818;stroke-width:1.0;"/><polygon fill="#181818" points="200.12,461.54,209.3627,458.138,203.7064,458.0561,203.7884,452.3998,200.12,461.54" style="stroke:#181818;stroke-width:1.0;"/><text fill="#000000" font-family="sans-serif" font-size="13" lengthAdjust="spacing" textLength="32.4365" x="287.24" y="349.1569">paga</text></g><!--link Ruta to Tarifa--><g id="link_Ruta_Tarifa"><path codeLine="24" d="M174.24,385.14 C174.24,409.75 174.24,434.57 174.24,455.39 " fill="none" id="Ruta-to-Tarifa" style="stroke:#181818;stroke-width:1.0;"/><polygon fill="#181818" points="174.24,461.39,178.24,452.39,174.24,456.39,170.24,452.39,174.24,461.39" style="stroke:#181818;stroke-width:1.0;"/><text fill="#000000" font-family="sans-serif" font-size="13" lengthAdjust="spacing" textLength="43.9702" x="175.24" y="427.9569">influye</text></g><!--SRC=[NOyn3i8m34NtdC8No0KoiB0oL83OJPAcGIMkd6H0YBlJfg99sQplz_s_zOWnmiqENkUHu2q-GkYY7IcOh1DnAtOOyM5v0G7aqoOorA4Z1PV4FhXAddF2bHg8aNr5Pcb2HeDHmSd7L3tNcUknvDLqAG_bc8BeNRPYwoebr98AT1dt-rzT1Oann8auuT_fDNEntnbtvZPq-xkrJEXGb3zRrOT-p2_x1G00]--></g></svg>