<svg xmlns="http://www.w3.org/2000/svg" xmlns:xlink="http://www.w3.org/1999/xlink" contentStyleType="text/css" height="441px" preserveAspectRatio="none" style="width:816px;height:441px;background:#FFFFFF;" version="1.1" viewBox="0 0 816 441" width="816px" zoomAndPan="magnify"><defs/><g><g id="elem_autobus"><rect fill="#F1F1F1" height="36.2969" style="stroke:#181818;stroke-width:0.5;" width="140.7041" x="482.9" y="7"/><text fill="#000000" font-family="sans-serif" font-size="14" lengthAdjust="spacing" textLength="126.7041" x="489.9" y="21.9951">Autobus: Vehiculo</text><line style="stroke:#181818;stroke-width:0.5;" x1="483.9" x2="622.6041" y1="27.2969" y2="27.2969"/></g><g id="elem_juan"><rect fill="#F1F1F1" height="36.2969" style="stroke:#181818;stroke-width:0.5;" width="126.1025" x="214.2" y="120.29"/><text fill="#000000" font-family="sans-serif" font-size="14" lengthAdjust="spacing" textLength="112.1025" x="221.2" y="135.2851">Juan: Conductor</text><line style="stroke:#181818;stroke-width:0.5;" x1="215.2" x2="339.3025" y1="140.5869" y2="140.5869"/></g><g id="elem_tarifa"><rect fill="#F1F1F1" height="36.2969" style="stroke:#181818;stroke-width:0.5;" width="103.5303" x="454.49" y="399.07"/><text fill="#000000" font-family="sans-serif" font-size="14" lengthAdjust="spacing" textLength="89.5303" x="461.49" y="414.0651">2.20&#8364;: Tarifa</text><line style="stroke:#181818;stroke-width:0.5;" x1="455.49" x2="557.0203" y1="419.3669" y2="419.3669"/></g><g id="elem_ruta"><rect fill="#F1F1F1" height="60.8906" style="stroke:#181818;stroke-width:0.5;" width="317.1289" x="118.69" y="261.18"/><text fill="#000000" font-family="sans-serif" font-size="14" lengthAdjust="spacing" textLength="173.8789" x="190.315" y="276.1751">Santander-Malia&#241;o: Ruta</text><line style="stroke:#181818;stroke-width:0.5;" x1="119.69" x2="434.8189" y1="281.4769" y2="281.4769"/><text fill="#000000" font-family="sans-serif" font-size="14" lengthAdjust="spacing" textLength="123.8057" x="124.69" y="298.472">horario = "9/10h"</text><text fill="#000000" font-family="sans-serif" font-size="14" lengthAdjust="spacing" textLength="305.1289" x="124.69" y="314.7689">estaciones = "Valdecilla, Malia&#241;o, Astillero"</text></g><g id="elem_pepe"><rect fill="#F1F1F1" height="44.5938" style="stroke:#181818;stroke-width:0.5;" width="117.4414" x="437.53" y="186.59"/><text fill="#000000" font-family="sans-serif" font-size="14" lengthAdjust="spacing" textLength="103.4414" x="444.53" y="201.5851">Pepe: Pasajero</text><line style="stroke:#181818;stroke-width:0.5;" x1="438.53" x2="553.9714" y1="206.8869" y2="206.8869"/><text fill="#000000" font-family="sans-serif" font-size="14" lengthAdjust="spacing" textLength="56.082" x="443.53" y="223.882">efectivo</text></g><g id="elem_jorge"><rect fill="#F1F1F1" height="44.5938" style="stroke:#181818;stroke-width:0.5;" width="118.8359" x="559.84" y="186.59"/><text fill="#000000" font-family="sans-serif" font-size="14" lengthAdjust="spacing" textLength="104.8359" x="566.84" y="201.5851">Jorge: Pasajero</text><line style="stroke:#181818;stroke-width:0.5;" x1="560.84" x2="677.6759" y1="206.8869" y2="206.8869"/><text fill="#000000" font-family="sans-serif" font-size="14" lengthAdjust="spacing" textLength="43.4697" x="565.84" y="223.882">abono</text></g><g id="elem_ana"><rect fill="#F1F1F1" height="44.5938" style="stroke:#181818;stroke-width:0.5;" width="130.1523" x="679.18" y="269.33"/><text fill="#000000" font-family="sans-serif" font-size="14" lengthAdjust="spacing" textLength="95.915" x="696.2987" y="284.3251">Ana: Pasajero</text><line style="stroke:#181818;stroke-width:0.5;" x1="680.18" x2="808.3323" y1="289.6269" y2="289.6269"/><text fill="#000000" font-family="sans-serif" font-size="14" lengthAdjust="spacing" textLength="118.1523" x="685.18" y="306.622">tarjeta +65 a&#241;os</text></g><!--link autobus to pepe--><g id="link_autobus_pepe"><path codeLine="20" d="M525.4,43.77 C515.62,51.54 505.72,61.57 500.25,73.29 C483.15,109.94 486.362,152.5986 490.882,180.2486 " fill="none" id="autobus-to-pepe" style="stroke:#181818;stroke-width:1.0;"/><polygon fill="#181818" points="491.85,186.17,494.3456,176.6426,491.0433,181.2355,486.4504,177.9332,491.85,186.17" style="stroke:#181818;stroke-width:1.0;"/><text fill="#000000" font-family="sans-serif" font-size="13" lengthAdjust="spacing" textLength="68.0342" x="501.25" y="86.3569">transporta</text></g><!--link autobus to jorge--><g id="link_autobus_jorge"><path codeLine="21" d="M561.44,43.44 C565.5,52.28 570.36,63.27 574.25,73.29 C589.52,112.56 602.7061,153.6851 610.9461,180.4751 " fill="none" id="autobus-to-jorge" style="stroke:#181818;stroke-width:1.0;"/><polygon fill="#181818" points="612.71,186.21,613.8874,176.4318,611.2401,181.431,606.2409,178.7837,612.71,186.21" style="stroke:#181818;stroke-width:1.0;"/><text fill="#000000" font-family="sans-serif" font-size="13" lengthAdjust="spacing" textLength="68.0342" x="581.25" y="86.3569">transporta</text></g><!--link autobus to ana--><g id="link_autobus_ana"><path codeLine="22" d="M613.32,43.74 C629.53,50.82 645.97,60.44 658.25,73.29 C712.79,130.35 733.1181,220.2409 740.2081,262.9809 " fill="none" id="autobus-to-ana" style="stroke:#181818;stroke-width:1.0;"/><polygon fill="#181818" points="741.19,268.9,743.6632,259.3667,740.3717,263.9674,735.7711,260.6759,741.19,268.9" style="stroke:#181818;stroke-width:1.0;"/><text fill="#000000" font-family="sans-serif" font-size="13" lengthAdjust="spacing" textLength="68.0342" x="710.25" y="143.0069">transporta</text></g><!--link juan to tarifa--><g id="link_juan_tarifa"><path codeLine="23" d="M225.5,156.98 C145.33,186.88 6,251.38 63.25,322.07 C111.99,382.26 342.0751,405.1446 448.2951,412.6946 " fill="none" id="juan-to-tarifa" style="stroke:#181818;stroke-width:1.0;"/><polygon fill="#181818" points="454.28,413.12,445.5862,408.492,449.2926,412.7655,445.019,416.4718,454.28,413.12" style="stroke:#181818;stroke-width:1.0;"/><text fill="#000000" font-family="sans-serif" font-size="13" lengthAdjust="spacing" textLength="36.6641" x="64.25" y="296.1969">cobra</text></g><!--link autobus to juan--><g id="link_autobus_juan"><path codeLine="24" d="M485.51,43.69 C458.01,51.6 426.2,61.76 398.25,73.29 C365.73,86.72 335.562,103.0528 311.512,116.9828 " fill="none" id="autobus-to-juan" style="stroke:#181818;stroke-width:1.0;"/><polygon fill="#181818" points="306.32,119.99,316.1128,118.9405,310.6466,117.484,312.1031,112.0178,306.32,119.99" style="stroke:#181818;stroke-width:1.0;"/><text fill="#000000" font-family="sans-serif" font-size="13" lengthAdjust="spacing" textLength="54.9771" x="399.25" y="86.3569">conduce</text></g><!--link juan to ruta--><g id="link_juan_ruta"><path codeLine="25" d="M277.25,157.08 C277.25,182.55 277.25,223.96 277.25,254.9 " fill="none" id="juan-to-ruta" style="stroke:#181818;stroke-width:1.0;"/><polygon fill="#181818" points="277.25,260.9,281.25,251.9,277.25,255.9,273.25,251.9,277.25,260.9" style="stroke:#181818;stroke-width:1.0;"/><text fill="#000000" font-family="sans-serif" font-size="13" lengthAdjust="spacing" textLength="34.874" x="278.25" y="213.4569">sigue</text></g><!--link pepe to tarifa--><g id="link_pepe_tarifa"><path codeLine="26" d="M497.3,231.58 C499.3,272.65 503.2902,355.047 505.1102,392.687 " fill="none" id="pepe-to-tarifa" style="stroke:#181818;stroke-width:1.0;"/><polygon fill="#181818" points="505.4,398.68,508.9607,389.4973,505.1585,393.6858,500.97,389.8837,505.4,398.68" style="stroke:#181818;stroke-width:1.0;"/><text fill="#000000" font-family="sans-serif" font-size="13" lengthAdjust="spacing" textLength="32.4365" x="503.25" y="296.1969">paga</text></g><!--link jorge to tarifa--><g id="link_jorge_tarifa"><path codeLine="27" d="M607.37,231.58 C584.88,272.65 539.3516,355.7773 518.7416,393.4173 " fill="none" id="jorge-to-tarifa" style="stroke:#181818;stroke-width:1.0;"/><polygon fill="#181818" points="515.86,398.68,523.6909,392.707,518.2614,394.2944,516.674,388.8648,515.86,398.68" style="stroke:#181818;stroke-width:1.0;"/><text fill="#000000" font-family="sans-serif" font-size="13" lengthAdjust="spacing" textLength="32.4365" x="592.25" y="296.1969">paga</text></g><!--link ana to tarifa--><g id="link_ana_tarifa"><path codeLine="28" d="M718.03,314.23 C696.92,330.85 665.97,353.53 636.25,369.07 C611.58,381.98 588.2665,390.986 563.9265,399.036 " fill="none" id="ana-to-tarifa" style="stroke:#181818;stroke-width:1.0;"/><polygon fill="#181818" points="558.23,400.92,568.0308,401.8917,562.9771,399.35,565.5188,394.2963,558.23,400.92" style="stroke:#181818;stroke-width:1.0;"/><text fill="#000000" font-family="sans-serif" font-size="13" lengthAdjust="spacing" textLength="32.4365" x="666.25" y="365.1369">paga</text></g><!--link ruta to tarifa--><g id="link_ruta_tarifa"><path codeLine="29" d="M332.69,322.55 C376.77,346.34 431.6495,375.961 468.3295,395.751 " fill="none" id="ruta-to-tarifa" style="stroke:#181818;stroke-width:1.0;"/><polygon fill="#181818" points="473.61,398.6,467.5886,390.8062,469.2096,396.2259,463.79,397.8468,473.61,398.6" style="stroke:#181818;stroke-width:1.0;"/><text fill="#000000" font-family="sans-serif" font-size="13" lengthAdjust="spacing" textLength="43.9702" x="414.25" y="365.1369">influye</text></g><!--SRC=[TP5DIWD148NtSufYjYOQ0mesH0Zk0a9GoRvcKfFqC7GD_ID8SEDvt7W6R-99hEuPOoOXk-QzhrwzxkQYfj93FW-UY-0Kh6Yhoz1m3kW0EpNZdbe4D0eUsAn3wTacfXPj3qmlfvEVZqy5BsXrXGdmwRX7dj5uD6kouqTiD7v_iOAdu3lMoW5s6S2MhOmnp22_kxgUR7FHo7aiDHjoKLvXiwPIDmsEu2zf17FdHIBBUVQ-NxcabXGiqM4TdRYe5IajajXA8FtA1mCBjflZYJfg_GWMR0xvkS4Z6Wtsh5o_9hdLnUqDn8xkSC-Pzzm9a_MF3-FnVLTNWRTeNClMuy3jgfsrOvU16LSaf_iQCKikx55cPA8Hkz7_IFeX1Kvl0cMfrY2enOtafpwdUYnoggR4WQnDrOGt-WK0]--></g></svg>