<svg xmlns="http://www.w3.org/2000/svg" xmlns:xlink="http://www.w3.org/1999/xlink" contentStyleType="text/css" height="1034px" preserveAspectRatio="none" style="width:627px;height:1034px;background:#FFFFFF;" version="1.1" viewBox="0 0 627 1034" width="627px" zoomAndPan="magnify"><defs/><g><!--cluster Conductor--><g id="cluster_Conductor"><path d="M342.5,203.79 L601.5,203.79 A12.5,12.5 0 0 1 614,216.29 L614,225.0869 L330,225.0869 L330,216.29 A12.5,12.5 0 0 1 342.5,203.79 " fill="#F1F1F1" style="stroke:#F1F1F1;stroke-width:1.0;"/><rect fill="none" height="735.45" rx="12.5" ry="12.5" style="stroke:#181818;stroke-width:0.5;" width="284" x="330" y="203.79"/><line style="stroke:#181818;stroke-width:0.5;" x1="330" x2="614" y1="225.0869" y2="225.0869"/><text fill="#000000" font-family="sans-serif" font-size="14" lengthAdjust="spacing" textLength="72.4814" x="436" y="220.7851">Conductor</text></g><!--cluster Vehiculo--><g id="cluster_Vehiculo"><path d="M19.5,537.59 L293.5,537.59 A12.5,12.5 0 0 1 306,550.09 L306,558.8869 L7,558.8869 L7,550.09 A12.5,12.5 0 0 1 19.5,537.59 " fill="#F1F1F1" style="stroke:#F1F1F1;stroke-width:1.0;"/><rect fill="none" height="491.3" rx="12.5" ry="12.5" style="stroke:#181818;stroke-width:0.5;" width="299" x="7" y="537.59"/><line style="stroke:#181818;stroke-width:0.5;" x1="7" x2="306" y1="558.8869" y2="558.8869"/><text fill="#000000" font-family="sans-serif" font-size="14" lengthAdjust="spacing" textLength="59.9785" x="127" y="554.5851">Vehiculo</text></g><g id="Conductor.conductorParado"><rect fill="#F1F1F1" height="50" rx="12.5" ry="12.5" style="stroke:#181818;stroke-width:0.5;" width="91.4355" x="346.28" y="557.59"/><line style="stroke:#181818;stroke-width:0.5;" x1="346.28" x2="437.7155" y1="583.8869" y2="583.8869"/><text fill="#000000" font-family="sans-serif" font-size="14" lengthAdjust="spacing" textLength="71.4355" x="356.28" y="575.5851">En parada</text></g><g id="Conductor.conduccion"><rect fill="#F1F1F1" height="50" rx="12.5" ry="12.5" style="stroke:#181818;stroke-width:0.5;" width="121.7871" x="347.11" y="684.59"/><line style="stroke:#181818;stroke-width:0.5;" x1="347.11" x2="468.8971" y1="710.8869" y2="710.8869"/><text fill="#000000" font-family="sans-serif" font-size="14" lengthAdjust="spacing" textLength="101.7871" x="357.11" y="702.5851">En conducci&#243;n</text></g><ellipse cx="392" cy="248.79" fill="#222222" rx="10" ry="10" style="stroke:#222222;stroke-width:1.0;"/><ellipse cx="409" cy="912.24" fill="none" rx="11" ry="11" style="stroke:#222222;stroke-width:1.0;"/><ellipse cx="409" cy="912.24" fill="#222222" rx="6" ry="6" style="stroke:#222222;stroke-width:1.0;"/><g id="Vehiculo.fueraServicio"><rect fill="#F1F1F1" height="50" rx="12.5" ry="12.5" style="stroke:#181818;stroke-width:0.5;" width="140.2646" x="117.87" y="684.59"/><line style="stroke:#181818;stroke-width:0.5;" x1="117.87" x2="258.1346" y1="710.8869" y2="710.8869"/><text fill="#000000" font-family="sans-serif" font-size="14" lengthAdjust="spacing" textLength="120.2646" x="127.87" y="702.5851">Fuera de servicio</text></g><path d="M122.96,811.59 L253.0443,811.59 A12.5,12.5 0 0 1 265.5443,824.09 L265.5443,837.8869 L110.46,837.8869 L110.46,824.09 A12.5,12.5 0 0 1 122.96,811.59 " fill="#F1F1F1" style="stroke:#F1F1F1;stroke-width:1.0;"/><rect fill="none" height="201.2969" rx="12.5" ry="12.5" style="stroke:#181818;stroke-width:0.5;" width="155.0843" x="110.46" y="811.59"/><line style="stroke:#181818;stroke-width:0.5;" x1="110.46" x2="265.5443" y1="837.8869" y2="837.8869"/><text fill="#000000" font-family="sans-serif" font-size="14" lengthAdjust="spacing" textLength="76.1592" x="149.9225" y="829.5851">En servicio</text><g id="Vehiculo.enServicio.enRuta"><rect fill="#F1F1F1" height="50" rx="12.5" ry="12.5" style="stroke:#181818;stroke-width:0.5;" width="70.8662" x="132.74" y="849.8869"/><line style="stroke:#181818;stroke-width:0.5;" x1="132.74" x2="203.6062" y1="876.1838" y2="876.1838"/><text fill="#000000" font-family="sans-serif" font-size="14" lengthAdjust="spacing" textLength="50.8662" x="142.74" y="867.882">En ruta</text></g><g id="Vehiculo.enServicio.vehiculoEnParada"><rect fill="#F1F1F1" height="50" rx="12.5" ry="12.5" style="stroke:#181818;stroke-width:0.5;" width="91.4355" x="122.46" y="952.8869"/><line style="stroke:#181818;stroke-width:0.5;" x1="122.46" x2="213.8955" y1="979.1838" y2="979.1838"/><text fill="#000000" font-family="sans-serif" font-size="14" lengthAdjust="spacing" textLength="71.4355" x="132.46" y="970.882">En parada</text></g><!--link enRuta to vehiculoEnParada--><g id="link_enRuta_vehiculoEnParada"><path d="M149,900.2969 C143.06,910.7169 138.84,923.1469 142.18,934.8869 C143.91,940.9869 143.7921,941.8969 147.0421,947.4569 " fill="none" id="enRuta-to-vehiculoEnParada" style="stroke:#181818;stroke-width:1.0;"/><polygon fill="#181818" points="150.07,952.6369,148.9815,942.8484,147.5468,948.3202,142.0749,946.8855,150.07,952.6369" style="stroke:#181818;stroke-width:1.0;"/><text fill="#000000" font-family="sans-serif" font-size="13" lengthAdjust="spacing" textLength="29.5293" x="143.18" y="930.9538">para</text></g><!--link vehiculoEnParada to enRuta--><g id="link_vehiculoEnParada_enRuta"><path d="M171.82,952.5069 C173,941.8869 173.85,929.2769 173.18,917.8869 C172.84,912.1669 172.923,911.9979 172.263,906.2379 " fill="none" id="vehiculoEnParada-to-enRuta" style="stroke:#181818;stroke-width:1.0;"/><polygon fill="#181818" points="171.58,900.2769,168.6305,909.6737,172.1492,905.2444,176.5785,908.763,171.58,900.2769" style="stroke:#181818;stroke-width:1.0;"/><text fill="#000000" font-family="sans-serif" font-size="13" lengthAdjust="spacing" textLength="81.3643" x="174.18" y="930.9538">sigue la ruta</text></g><ellipse cx="188" cy="582.59" fill="#222222" rx="10" ry="10" style="stroke:#222222;stroke-width:1.0;"/><path d="M84.48,7 L301.514,7 A12.5,12.5 0 0 1 314.014,19.5 L314.014,33.2969 L71.98,33.2969 L71.98,19.5 A12.5,12.5 0 0 1 84.48,7 " fill="#F1F1F1" style="stroke:#F1F1F1;stroke-width:1.0;"/><rect fill="none" height="483.5969" rx="12.5" ry="12.5" style="stroke:#181818;stroke-width:0.5;" width="242.034" x="71.98" y="7"/><line style="stroke:#181818;stroke-width:0.5;" x1="71.98" x2="314.014" y1="33.2969" y2="33.2969"/><text fill="#000000" font-family="sans-serif" font-size="14" lengthAdjust="spacing" textLength="59.7188" x="163.1376" y="24.9951">Pasajero</text><g id="Pasajero.pasajeroEnParada"><rect fill="#F1F1F1" height="50" rx="12.5" ry="12.5" style="stroke:#181818;stroke-width:0.5;" width="91.4355" x="123.9" y="101.2969"/><line style="stroke:#181818;stroke-width:0.5;" x1="123.9" x2="215.3355" y1="127.5938" y2="127.5938"/><text fill="#000000" font-family="sans-serif" font-size="14" lengthAdjust="spacing" textLength="71.4355" x="133.9" y="119.292">En parada</text></g><path d="M96.48,204.2969 L242.763,204.2969 A12.5,12.5 0 0 1 255.263,216.7969 L255.263,230.5938 L83.98,230.5938 L83.98,216.7969 A12.5,12.5 0 0 1 96.48,204.2969 " fill="#F1F1F1" style="stroke:#F1F1F1;stroke-width:1.0;"/><rect fill="none" height="201.2969" rx="12.5" ry="12.5" style="stroke:#181818;stroke-width:0.5;" width="171.283" x="83.98" y="204.2969"/><line style="stroke:#181818;stroke-width:0.5;" x1="83.98" x2="255.263" y1="230.5938" y2="230.5938"/><text fill="#000000" font-family="sans-serif" font-size="14" lengthAdjust="spacing" textLength="55.4258" x="141.9086" y="222.292">En viaje</text><g id="Pasajero.enViaje.enPago"><rect fill="#F1F1F1" height="50" rx="12.5" ry="12.5" style="stroke:#181818;stroke-width:0.5;" width="77.0869" x="115.17" y="242.5938"/><line style="stroke:#181818;stroke-width:0.5;" x1="115.17" x2="192.2569" y1="268.8906" y2="268.8906"/><text fill="#000000" font-family="sans-serif" font-size="14" lengthAdjust="spacing" textLength="57.0869" x="125.17" y="260.5889">En pago</text></g><g id="Pasajero.enViaje.enTransporte"><rect fill="#F1F1F1" height="50" rx="12.5" ry="12.5" style="stroke:#181818;stroke-width:0.5;" width="115.4707" x="95.98" y="345.5938"/><line style="stroke:#181818;stroke-width:0.5;" x1="95.98" x2="211.4507" y1="371.8906" y2="371.8906"/><text fill="#000000" font-family="sans-serif" font-size="14" lengthAdjust="spacing" textLength="95.4707" x="105.98" y="363.5889">En transporte</text></g><!--link enPago to enTransporte--><g id="link_enPago_enTransporte"><path d="M153.72,293.0438 C153.72,308.9238 153.72,323.5338 153.72,339.3738 " fill="none" id="enPago-to-enTransporte" style="stroke:#181818;stroke-width:1.0;"/><polygon fill="#181818" points="153.72,345.3738,157.72,336.3738,153.72,340.3738,149.72,336.3738,153.72,345.3738" style="stroke:#181818;stroke-width:1.0;"/><text fill="#000000" font-family="sans-serif" font-size="13" lengthAdjust="spacing" textLength="90.543" x="154.72" y="323.6606">pago correcto</text></g><ellipse cx="169.62" cy="54.2969" fill="#222222" rx="10" ry="10" style="stroke:#222222;stroke-width:1.0;"/><ellipse cx="169.62" cy="469.5969" fill="none" rx="11" ry="11" style="stroke:#222222;stroke-width:1.0;"/><ellipse cx="169.62" cy="469.5969" fill="#222222" rx="6" ry="6" style="stroke:#222222;stroke-width:1.0;"/><!--link *start*Pasajero to pasajeroEnParada--><g id="link_*start*Pasajero_pasajeroEnParada"><path d="M169.62,64.7369 C169.62,73.9969 169.62,82.4969 169.62,94.9869 " fill="none" id="*start*Pasajero-to-pasajeroEnParada" style="stroke:#181818;stroke-width:1.0;"/><polygon fill="#181818" points="169.62,100.9869,173.62,91.9869,169.62,95.9869,165.62,91.9869,169.62,100.9869" style="stroke:#181818;stroke-width:1.0;"/></g><!--link pasajeroEnParada to enViaje--><g id="link_pasajeroEnParada_enViaje"><path d="M134.54,151.3669 C129.29,156.6269 124.64,162.6469 121.62,169.2969 C116.6,180.3769 114.6826,186.1638 115.8026,197.9538 " fill="none" id="pasajeroEnParada-to-enViaje" style="stroke:#181818;stroke-width:1.0;"/><polygon fill="#181818" points="116.37,203.9269,119.5009,194.5889,115.8971,198.9493,111.5368,195.3455,116.37,203.9269" style="stroke:#181818;stroke-width:1.0;"/><text fill="#000000" font-family="sans-serif" font-size="13" lengthAdjust="spacing" textLength="74.3691" x="122.62" y="182.3638">sube al bus</text></g><!--link enViaje to pasajeroEnParada--><g id="link_enViaje_pasajeroEnParada"><path d="M201.6,203.8169 C202.06,192.0969 200.98,180.3869 197.62,169.2969 C195.74,163.0969 195.7982,162.0497 192.2982,156.4697 " fill="none" id="enViaje-to-pasajeroEnParada" style="stroke:#181818;stroke-width:1.0;"/><polygon fill="#181818" points="189.11,151.3869,190.5037,161.1366,191.7668,155.6226,197.2808,156.8857,189.11,151.3869" style="stroke:#181818;stroke-width:1.0;"/><text fill="#000000" font-family="sans-serif" font-size="13" lengthAdjust="spacing" textLength="102.394" x="201.62" y="182.3638">pago incorrecto</text></g><!--link enViaje to *end*Pasajero--><g id="link_enViaje_*end*Pasajero"><path d="M169.62,405.7169 C169.62,427.2769 169.62,441.0269 169.62,452.4269 " fill="none" id="enViaje-to-*end*Pasajero" style="stroke:#181818;stroke-width:1.0;"/><polygon fill="#181818" points="169.62,458.4269,173.62,449.4269,169.62,453.4269,165.62,449.4269,169.62,458.4269" style="stroke:#181818;stroke-width:1.0;"/><text fill="#000000" font-family="sans-serif" font-size="13" lengthAdjust="spacing" textLength="71.8237" x="170.62" y="436.6638">fin de viaje</text></g><!--link *start*Conductor to conductorParado--><g id="link_*start*Conductor_conductorParado"><path d="M392,259.02 C392,302.76 392,484.08 392,551.39 " fill="none" id="*start*Conductor-to-conductorParado" style="stroke:#181818;stroke-width:1.0;"/><polygon fill="#181818" points="392,557.39,396,548.39,392,552.39,388,548.39,392,557.39" style="stroke:#181818;stroke-width:1.0;"/></g><!--link conductorParado to conduccion--><g id="link_conductorParado_conduccion"><path d="M381.76,608.07 C377.36,621.83 374.03,639.27 378,654.59 C380.66,664.87 382.7033,670.1111 387.9433,679.0011 " fill="none" id="conductorParado-to-conduccion" style="stroke:#181818;stroke-width:1.0;"/><polygon fill="#181818" points="390.99,684.17,389.8659,674.3855,388.4511,679.8626,382.974,678.4478,390.99,684.17" style="stroke:#181818;stroke-width:1.0;"/><text fill="#000000" font-family="sans-serif" font-size="13" lengthAdjust="spacing" textLength="108.894" x="379" y="650.6569">comienza la ruta</text></g><!--link conduccion to conductorParado--><g id="link_conduccion_conductorParado"><path d="M467.7,684.23 C487.98,672.13 503.05,656.12 492,637.59 C480.17,617.77 463.8285,607.039 443.5285,598.789 " fill="none" id="conduccion-to-conductorParado" style="stroke:#181818;stroke-width:1.0;"/><polygon fill="#181818" points="437.97,596.53,444.8018,603.6242,442.6021,598.4125,447.8137,596.2128,437.97,596.53" style="stroke:#181818;stroke-width:1.0;"/><text fill="#000000" font-family="sans-serif" font-size="13" lengthAdjust="spacing" textLength="65.8252" x="496" y="650.6569">incidencia</text></g><!--link conduccion to *end*Conductor--><g id="link_conduccion_*end*Conductor"><path d="M408.12,734.8 C408.34,778.78 408.7707,864.1301 408.9207,894.8801 " fill="none" id="conduccion-to-*end*Conductor" style="stroke:#181818;stroke-width:1.0;"/><polygon fill="#181818" points="408.95,900.88,412.9061,891.8606,408.9256,895.8801,404.9061,891.8996,408.95,900.88" style="stroke:#181818;stroke-width:1.0;"/><text fill="#000000" font-family="sans-serif" font-size="13" lengthAdjust="spacing" textLength="91.0762" x="409" y="777.6569">fin de servicio</text></g><!--link *start*Vehiculo to fueraServicio--><g id="link_*start*Vehiculo_fueraServicio"><path d="M188,592.99 C188,612.18 188,650.41 188,678.26 " fill="none" id="*start*Vehiculo-to-fueraServicio" style="stroke:#181818;stroke-width:1.0;"/><polygon fill="#181818" points="188,684.26,192,675.26,188,679.26,184,675.26,188,684.26" style="stroke:#181818;stroke-width:1.0;"/></g><!--link fueraServicio to enServicio--><g id="link_fueraServicio_enServicio"><path d="M117.63,722.59 C93.67,730.4 69.34,743.3 55,764.59 C28.99,803.23 62.7664,838.7388 105.0464,866.7188 " fill="none" id="fueraServicio-to-enServicio" style="stroke:#181818;stroke-width:1.0;"/><polygon fill="#181818" points="110.05,870.03,104.7522,861.7274,105.8804,867.2706,100.3372,868.3988,110.05,870.03" style="stroke:#181818;stroke-width:1.0;"/><text fill="#000000" font-family="sans-serif" font-size="13" lengthAdjust="spacing" textLength="88.4546" x="56" y="777.6569">inicia servicio</text></g><!--link enServicio to fueraServicio--><g id="link_enServicio_fueraServicio"><path d="M184.67,811.45 C184.52,795.77 184.58,779.74 185,764.59 C185.27,754.93 185.4607,750.2898 186.0007,741.0298 " fill="none" id="enServicio-to-fueraServicio" style="stroke:#181818;stroke-width:1.0;"/><polygon fill="#181818" points="186.35,735.04,181.8328,743.7919,186.0589,740.0315,189.8193,744.2576,186.35,735.04" style="stroke:#181818;stroke-width:1.0;"/><text fill="#000000" font-family="sans-serif" font-size="13" lengthAdjust="spacing" textLength="100.6738" x="186" y="777.6569">finaliza servicio</text></g><!--link conductorParado to fueraServicio--><g id="link_conductorParado_fueraServicio"><path d="M352.18,607.99 C316.24,630.02 268.7456,659.1146 232.8356,681.1246 " fill="none" id="conductorParado-to-fueraServicio" style="stroke:#181818;stroke-width:1.0;stroke-dasharray:1.0,3.0;"/><polygon fill="#181818" points="227.72,684.26,237.4836,682.9672,231.983,681.6471,233.3031,676.1465,227.72,684.26" style="stroke:#181818;stroke-width:1.0;"/><text fill="#000000" font-family="sans-serif" font-size="13" lengthAdjust="spacing" textLength="42.8086" x="303" y="650.6569">asigna</text></g><!--link conduccion to enServicio--><g id="link_conduccion_enServicio"><path d="M381.46,734.8 C352.89,760.85 310.5329,799.4865 270.1229,836.3465 " fill="none" id="conduccion-to-enServicio" style="stroke:#181818;stroke-width:1.0;stroke-dasharray:1.0,3.0;"/><polygon fill="#181818" points="265.69,840.39,275.035,837.2801,269.3841,837.0205,269.6437,831.3696,265.69,840.39" style="stroke:#181818;stroke-width:1.0;"/><text fill="#000000" font-family="sans-serif" font-size="13" lengthAdjust="spacing" textLength="37.5146" x="343" y="777.6569">opera</text></g><!--SRC=[VLF1Ri8m3BttAomkaoRn0nouJEoCsCG5SJ2fOPbAKYKf1oQ-Qf-m7vkJfZGfsJYWr7v-ij-phKD7yA9LtGcd3NnLm3yRehELWXODrZW3j206qDh7z0JOPuNy-LO9MaYj0d3tl8VvV5aacSGId2-71N-S9QahGeDWEeT9LK0KYBbAAY5huhyYtZUqWADKK1DOCXV9gUfMLVr8M_gGecjqBiXhHmRJWZ3gqKVV1efSbWn8Qa15sXphHukupJ3bdsvSOeCh5GOUqNrnc76AuO4zmntwaFT5iNu1LfuwoYI_PLO-Zfr58jdzqnl23np5xhlDy3b3y0SRUSM2Gskq-4b6_xUoRSHa8et8Y-HiL7phtqLRMZmDzgtvMK0uWygsshY1xFqUI6pnnL6KCHyiuRZGnX2lRq7duX3JO2Jkfs3lkWC1Dd3eR9IvpvJuXXRuNj8cqfBiM89gteSds523_gB8yhQSsqOUfM16Bu4p1CGIrTfM3mU-gxLpLEyBZYEldS8glTO4dUsJRhdq5m00]--></g></svg>