<svg xmlns="http://www.w3.org/2000/svg" xmlns:xlink="http://www.w3.org/1999/xlink" contentStyleType="text/css" height="893px" preserveAspectRatio="none" style="width:541px;height:893px;background:#FFFFFF;" version="1.1" viewBox="0 0 541 893" width="541px" zoomAndPan="magnify"><defs/><g><!--class Vehiculo--><g id="elem_Vehiculo"><rect codeLine="1" fill="#F1F1F1" height="178.375" id="Vehiculo" rx="2.5" ry="2.5" style="stroke:#181818;stroke-width:0.5;" width="190.2334" x="242.29" y="246.08"/><ellipse cx="303.1674" cy="262.08" fill="#ADD1B2" rx="11" ry="11" style="stroke:#181818;stroke-width:1.0;"/><path d="M306.1362,267.7206 Q305.5581,268.0175 304.9174,268.1581 Q304.2768,268.3144 303.5737,268.3144 Q301.0737,268.3144 299.7456,266.6737 Q298.4331,265.0175 298.4331,261.8925 Q298.4331,258.7675 299.7456,257.1112 Q301.0737,255.455 303.5737,255.455 Q304.2768,255.455 304.9174,255.6112 Q305.5737,255.7675 306.1362,256.0644 L306.1362,258.7831 Q305.5112,258.205 304.9174,257.9394 Q304.3237,257.6581 303.6987,257.6581 Q302.3549,257.6581 301.6674,258.7362 Q300.9799,259.7987 300.9799,261.8925 Q300.9799,263.9862 301.6674,265.0644 Q302.3549,266.1269 303.6987,266.1269 Q304.3237,266.1269 304.9174,265.8612 Q305.5112,265.58 306.1362,265.0019 L306.1362,267.7206 Z " fill="#000000"/><text fill="#000000" font-family="sans-serif" font-size="14" lengthAdjust="spacing" textLength="59.9785" x="323.6674" y="266.9267">Vehiculo</text><line style="stroke:#181818;stroke-width:0.5;" x1="243.29" x2="431.5234" y1="278.08" y2="278.08"/><rect fill="none" height="6" style="stroke:#C82930;stroke-width:1.0;" width="6" x="250.29" y="288.7284"/><text fill="#000000" font-family="sans-serif" font-size="14" lengthAdjust="spacing" textLength="63.7246" x="262.29" y="295.0751">id: String</text><rect fill="none" height="6" style="stroke:#C82930;stroke-width:1.0;" width="6" x="250.29" y="305.0253"/><text fill="#000000" font-family="sans-serif" font-size="14" lengthAdjust="spacing" textLength="117.3389" x="262.29" y="311.372">matricula: String</text><rect fill="none" height="6" style="stroke:#C82930;stroke-width:1.0;" width="6" x="250.29" y="321.3222"/><text fill="#000000" font-family="sans-serif" font-size="14" lengthAdjust="spacing" textLength="131.209" x="262.29" y="327.6689">capacidad: Integer</text><rect fill="none" height="6" style="stroke:#C82930;stroke-width:1.0;" width="6" x="250.29" y="337.6191"/><text fill="#000000" font-family="sans-serif" font-size="14" lengthAdjust="spacing" textLength="125.8701" x="262.29" y="343.9657">tipo: TipoVehiculo</text><rect fill="none" height="6" style="stroke:#C82930;stroke-width:1.0;" width="6" x="250.29" y="353.9159"/><text fill="#000000" font-family="sans-serif" font-size="14" lengthAdjust="spacing" textLength="164.2334" x="262.29" y="360.2626">estado: EstadoVehiculo</text><line style="stroke:#181818;stroke-width:0.5;" x1="243.29" x2="431.5234" y1="367.5644" y2="367.5644"/><ellipse cx="253.29" cy="381.2128" fill="#84BE84" rx="3" ry="3" style="stroke:#038048;stroke-width:1.0;"/><text fill="#000000" font-family="sans-serif" font-size="14" lengthAdjust="spacing" textLength="109.0811" x="262.29" y="384.5595">iniciarServicio()</text><ellipse cx="253.29" cy="397.5097" fill="#84BE84" rx="3" ry="3" style="stroke:#038048;stroke-width:1.0;"/><text fill="#000000" font-family="sans-serif" font-size="14" lengthAdjust="spacing" textLength="122.2402" x="262.29" y="400.8564">finalizarServicio()</text><ellipse cx="253.29" cy="413.8066" fill="#84BE84" rx="3" ry="3" style="stroke:#038048;stroke-width:1.0;"/><text fill="#000000" font-family="sans-serif" font-size="14" lengthAdjust="spacing" textLength="119.7656" x="262.29" y="417.1532">registrarParada()</text></g><!--class Conductor--><g id="elem_Conductor"><rect codeLine="12" fill="#F1F1F1" height="162.0781" id="Conductor" rx="2.5" ry="2.5" style="stroke:#181818;stroke-width:0.5;" width="180.1777" x="326.31" y="7"/><ellipse cx="375.9081" cy="23" fill="#ADD1B2" rx="11" ry="11" style="stroke:#181818;stroke-width:1.0;"/><path d="M378.8769,28.6406 Q378.2988,28.9375 377.6581,29.0781 Q377.0175,29.2344 376.3144,29.2344 Q373.8144,29.2344 372.4863,27.5938 Q371.1738,25.9375 371.1738,22.8125 Q371.1738,19.6875 372.4863,18.0313 Q373.8144,16.375 376.3144,16.375 Q377.0175,16.375 377.6581,16.5313 Q378.3144,16.6875 378.8769,16.9844 L378.8769,19.7031 Q378.2519,19.125 377.6581,18.8594 Q377.0644,18.5781 376.4394,18.5781 Q375.0956,18.5781 374.4081,19.6563 Q373.7206,20.7188 373.7206,22.8125 Q373.7206,24.9063 374.4081,25.9844 Q375.0956,27.0469 376.4394,27.0469 Q377.0644,27.0469 377.6581,26.7813 Q378.2519,26.5 378.8769,25.9219 L378.8769,28.6406 Z " fill="#000000"/><text fill="#000000" font-family="sans-serif" font-size="14" lengthAdjust="spacing" textLength="72.4814" x="396.4081" y="27.8467">Conductor</text><line style="stroke:#181818;stroke-width:0.5;" x1="327.31" x2="505.4877" y1="39" y2="39"/><rect fill="none" height="6" style="stroke:#C82930;stroke-width:1.0;" width="6" x="334.31" y="49.6484"/><text fill="#000000" font-family="sans-serif" font-size="14" lengthAdjust="spacing" textLength="63.7246" x="346.31" y="55.9951">id: String</text><rect fill="none" height="6" style="stroke:#C82930;stroke-width:1.0;" width="6" x="334.31" y="65.9453"/><text fill="#000000" font-family="sans-serif" font-size="14" lengthAdjust="spacing" textLength="105.2803" x="346.31" y="72.292">nombre: String</text><rect fill="none" height="6" style="stroke:#C82930;stroke-width:1.0;" width="6" x="334.31" y="82.2422"/><text fill="#000000" font-family="sans-serif" font-size="14" lengthAdjust="spacing" textLength="104.0771" x="346.31" y="88.5889">licencia: String</text><rect fill="none" height="6" style="stroke:#C82930;stroke-width:1.0;" width="6" x="334.31" y="98.5391"/><text fill="#000000" font-family="sans-serif" font-size="14" lengthAdjust="spacing" textLength="154.1777" x="346.31" y="104.8857">horasServicio: Integer</text><line style="stroke:#181818;stroke-width:0.5;" x1="327.31" x2="505.4877" y1="112.1875" y2="112.1875"/><ellipse cx="337.31" cy="125.8359" fill="#84BE84" rx="3" ry="3" style="stroke:#038048;stroke-width:1.0;"/><text fill="#000000" font-family="sans-serif" font-size="14" lengthAdjust="spacing" textLength="94.1172" x="346.31" y="129.1826">iniciarTurno()</text><ellipse cx="337.31" cy="142.1328" fill="#84BE84" rx="3" ry="3" style="stroke:#038048;stroke-width:1.0;"/><text fill="#000000" font-family="sans-serif" font-size="14" lengthAdjust="spacing" textLength="107.2764" x="346.31" y="145.4795">finalizarTurno()</text><ellipse cx="337.31" cy="158.4297" fill="#84BE84" rx="3" ry="3" style="stroke:#038048;stroke-width:1.0;"/><text fill="#000000" font-family="sans-serif" font-size="14" lengthAdjust="spacing" textLength="142.0713" x="346.31" y="161.7764">registrarIncidencia()</text></g><!--class Pasajero--><g id="elem_Pasajero"><rect codeLine="22" fill="#F1F1F1" height="162.0781" id="Pasajero" rx="2.5" ry="2.5" style="stroke:#181818;stroke-width:0.5;" width="190.8076" x="7" y="501.45"/><ellipse cx="68.2944" cy="517.45" fill="#ADD1B2" rx="11" ry="11" style="stroke:#181818;stroke-width:1.0;"/><path d="M71.2632,523.0906 Q70.6851,523.3875 70.0444,523.5281 Q69.4038,523.6844 68.7007,523.6844 Q66.2007,523.6844 64.8726,522.0437 Q63.5601,520.3875 63.5601,517.2625 Q63.5601,514.1375 64.8726,512.4812 Q66.2007,510.825 68.7007,510.825 Q69.4038,510.825 70.0444,510.9812 Q70.7007,511.1375 71.2632,511.4344 L71.2632,514.1531 Q70.6382,513.575 70.0444,513.3094 Q69.4507,513.0281 68.8257,513.0281 Q67.4819,513.0281 66.7944,514.1062 Q66.1069,515.1687 66.1069,517.2625 Q66.1069,519.3562 66.7944,520.4344 Q67.4819,521.4969 68.8257,521.4969 Q69.4507,521.4969 70.0444,521.2312 Q70.6382,520.95 71.2632,520.3719 L71.2632,523.0906 Z " fill="#000000"/><text fill="#000000" font-family="sans-serif" font-size="14" lengthAdjust="spacing" textLength="59.7188" x="88.7944" y="522.2967">Pasajero</text><line style="stroke:#181818;stroke-width:0.5;" x1="8" x2="196.8076" y1="533.45" y2="533.45"/><rect fill="none" height="6" style="stroke:#C82930;stroke-width:1.0;" width="6" x="15" y="544.0984"/><text fill="#000000" font-family="sans-serif" font-size="14" lengthAdjust="spacing" textLength="63.7246" x="27" y="550.4451">id: String</text><rect fill="none" height="6" style="stroke:#C82930;stroke-width:1.0;" width="6" x="15" y="560.3953"/><text fill="#000000" font-family="sans-serif" font-size="14" lengthAdjust="spacing" textLength="161.7656" x="27" y="566.742">metodoPago: TipoPago</text><rect fill="none" height="6" style="stroke:#C82930;stroke-width:1.0;" width="6" x="15" y="576.6922"/><text fill="#000000" font-family="sans-serif" font-size="14" lengthAdjust="spacing" textLength="164.8076" x="27" y="583.0389">tipoTarjeta: TipoTarjeta</text><rect fill="none" height="6" style="stroke:#C82930;stroke-width:1.0;" width="6" x="15" y="592.9891"/><text fill="#000000" font-family="sans-serif" font-size="14" lengthAdjust="spacing" textLength="145.4482" x="27" y="599.3357">saldoTarjeta: Double</text><line style="stroke:#181818;stroke-width:0.5;" x1="8" x2="196.8076" y1="606.6375" y2="606.6375"/><ellipse cx="18" cy="620.2859" fill="#84BE84" rx="3" ry="3" style="stroke:#038048;stroke-width:1.0;"/><text fill="#000000" font-family="sans-serif" font-size="14" lengthAdjust="spacing" textLength="86.1602" x="27" y="623.6326">pagarViaje()</text><ellipse cx="18" cy="636.5828" fill="#84BE84" rx="3" ry="3" style="stroke:#038048;stroke-width:1.0;"/><text fill="#000000" font-family="sans-serif" font-size="14" lengthAdjust="spacing" textLength="105.6016" x="27" y="639.9295">subirVehiculo()</text><ellipse cx="18" cy="652.8797" fill="#84BE84" rx="3" ry="3" style="stroke:#038048;stroke-width:1.0;"/><text fill="#000000" font-family="sans-serif" font-size="14" lengthAdjust="spacing" textLength="106.5928" x="27" y="656.2264">bajarVehiculo()</text></g><!--class Ruta--><g id="elem_Ruta"><rect codeLine="32" fill="#F1F1F1" height="162.0781" id="Ruta" rx="2.5" ry="2.5" style="stroke:#181818;stroke-width:0.5;" width="209.2168" x="232.8" y="501.45"/><ellipse cx="316.8239" cy="517.45" fill="#ADD1B2" rx="11" ry="11" style="stroke:#181818;stroke-width:1.0;"/><path d="M319.7927,523.0906 Q319.2146,523.3875 318.5739,523.5281 Q317.9333,523.6844 317.2302,523.6844 Q314.7302,523.6844 313.4021,522.0437 Q312.0896,520.3875 312.0896,517.2625 Q312.0896,514.1375 313.4021,512.4812 Q314.7302,510.825 317.2302,510.825 Q317.9333,510.825 318.5739,510.9812 Q319.2302,511.1375 319.7927,511.4344 L319.7927,514.1531 Q319.1677,513.575 318.5739,513.3094 Q317.9802,513.0281 317.3552,513.0281 Q316.0114,513.0281 315.3239,514.1062 Q314.6364,515.1687 314.6364,517.2625 Q314.6364,519.3562 315.3239,520.4344 Q316.0114,521.4969 317.3552,521.4969 Q317.9802,521.4969 318.5739,521.2312 Q319.1677,520.95 319.7927,520.3719 L319.7927,523.0906 Z " fill="#000000"/><text fill="#000000" font-family="sans-serif" font-size="14" lengthAdjust="spacing" textLength="32.6689" x="337.3239" y="522.2967">Ruta</text><line style="stroke:#181818;stroke-width:0.5;" x1="233.8" x2="441.0168" y1="533.45" y2="533.45"/><rect fill="none" height="6" style="stroke:#C82930;stroke-width:1.0;" width="6" x="240.8" y="544.0984"/><text fill="#000000" font-family="sans-serif" font-size="14" lengthAdjust="spacing" textLength="63.7246" x="252.8" y="550.4451">id: String</text><rect fill="none" height="6" style="stroke:#C82930;stroke-width:1.0;" width="6" x="240.8" y="560.3953"/><text fill="#000000" font-family="sans-serif" font-size="14" lengthAdjust="spacing" textLength="105.2803" x="252.8" y="566.742">nombre: String</text><rect fill="none" height="6" style="stroke:#C82930;stroke-width:1.0;" width="6" x="240.8" y="576.6922"/><text fill="#000000" font-family="sans-serif" font-size="14" lengthAdjust="spacing" textLength="158.7236" x="252.8" y="583.0389">horario: List&lt;Horario&gt;</text><rect fill="none" height="6" style="stroke:#C82930;stroke-width:1.0;" width="6" x="240.8" y="592.9891"/><text fill="#000000" font-family="sans-serif" font-size="14" lengthAdjust="spacing" textLength="162.4834" x="252.8" y="599.3357">paradas: List&lt;Parada&gt;</text><rect fill="none" height="6" style="stroke:#C82930;stroke-width:1.0;" width="6" x="240.8" y="609.2859"/><text fill="#000000" font-family="sans-serif" font-size="14" lengthAdjust="spacing" textLength="121.9531" x="252.8" y="615.6326">distancia: Double</text><line style="stroke:#181818;stroke-width:0.5;" x1="233.8" x2="441.0168" y1="622.9344" y2="622.9344"/><ellipse cx="243.8" cy="636.5828" fill="#84BE84" rx="3" ry="3" style="stroke:#038048;stroke-width:1.0;"/><text fill="#000000" font-family="sans-serif" font-size="14" lengthAdjust="spacing" textLength="180.5576" x="252.8" y="639.9295">obtenerSiguienteParada()</text><ellipse cx="243.8" cy="652.8797" fill="#84BE84" rx="3" ry="3" style="stroke:#038048;stroke-width:1.0;"/><text fill="#000000" font-family="sans-serif" font-size="14" lengthAdjust="spacing" textLength="183.2168" x="252.8" y="656.2264">calcularTiempoEstimado()</text></g><!--class Tarifa--><g id="elem_Tarifa"><rect codeLine="42" fill="#F1F1F1" height="145.7813" id="Tarifa" rx="2.5" ry="2.5" style="stroke:#181818;stroke-width:0.5;" width="172.46" x="212.17" y="740.53"/><ellipse cx="274.0079" cy="756.53" fill="#ADD1B2" rx="11" ry="11" style="stroke:#181818;stroke-width:1.0;"/><path d="M276.9766,762.1706 Q276.3985,762.4675 275.7579,762.6081 Q275.1173,762.7644 274.4141,762.7644 Q271.9141,762.7644 270.586,761.1238 Q269.2735,759.4675 269.2735,756.3425 Q269.2735,753.2175 270.586,751.5613 Q271.9141,749.905 274.4141,749.905 Q275.1173,749.905 275.7579,750.0613 Q276.4141,750.2175 276.9766,750.5144 L276.9766,753.2331 Q276.3516,752.655 275.7579,752.3894 Q275.1641,752.1081 274.5391,752.1081 Q273.1954,752.1081 272.5079,753.1863 Q271.8204,754.2488 271.8204,756.3425 Q271.8204,758.4363 272.5079,759.5144 Q273.1954,760.5769 274.5391,760.5769 Q275.1641,760.5769 275.7579,760.3113 Q276.3516,760.03 276.9766,759.4519 L276.9766,762.1706 Z " fill="#000000"/><text fill="#000000" font-family="sans-serif" font-size="14" lengthAdjust="spacing" textLength="40.2842" x="294.5079" y="761.3767">Tarifa</text><line style="stroke:#181818;stroke-width:0.5;" x1="213.17" x2="383.63" y1="772.53" y2="772.53"/><rect fill="none" height="6" style="stroke:#C82930;stroke-width:1.0;" width="6" x="220.17" y="783.1784"/><text fill="#000000" font-family="sans-serif" font-size="14" lengthAdjust="spacing" textLength="63.7246" x="232.17" y="789.5251">id: String</text><rect fill="none" height="6" style="stroke:#C82930;stroke-width:1.0;" width="6" x="220.17" y="799.4753"/><text fill="#000000" font-family="sans-serif" font-size="14" lengthAdjust="spacing" textLength="102.1836" x="232.17" y="805.822">precio: Double</text><rect fill="none" height="6" style="stroke:#C82930;stroke-width:1.0;" width="6" x="220.17" y="815.7722"/><text fill="#000000" font-family="sans-serif" font-size="14" lengthAdjust="spacing" textLength="146.46" x="232.17" y="822.1189">tipoTarifa: TipoTarifa</text><rect fill="none" height="6" style="stroke:#C82930;stroke-width:1.0;" width="6" x="220.17" y="832.0691"/><text fill="#000000" font-family="sans-serif" font-size="14" lengthAdjust="spacing" textLength="131.6807" x="232.17" y="838.4157">descuento: Double</text><line style="stroke:#181818;stroke-width:0.5;" x1="213.17" x2="383.63" y1="845.7175" y2="845.7175"/><ellipse cx="223.17" cy="859.3659" fill="#84BE84" rx="3" ry="3" style="stroke:#038048;stroke-width:1.0;"/><text fill="#000000" font-family="sans-serif" font-size="14" lengthAdjust="spacing" textLength="108.8486" x="232.17" y="862.7126">calcularPrecio()</text><ellipse cx="223.17" cy="875.6628" fill="#84BE84" rx="3" ry="3" style="stroke:#038048;stroke-width:1.0;"/><text fill="#000000" font-family="sans-serif" font-size="14" lengthAdjust="spacing" textLength="133" x="232.17" y="879.0095">aplicarDescuento()</text></g><!--link Conductor to Vehiculo--><g id="link_Conductor_Vehiculo"><path codeLine="52" d="M390.54,169.33 C382.66,193.78 375.7996,215.069 367.7596,240.029 " fill="none" id="Conductor-to-Vehiculo" style="stroke:#181818;stroke-width:1.0;"/><polygon fill="#181818" points="365.92,245.74,372.4868,238.3999,367.453,240.9808,364.8721,235.9471,365.92,245.74" style="stroke:#181818;stroke-width:1.0;"/><text fill="#000000" font-family="sans-serif" font-size="13" lengthAdjust="spacing" textLength="54.9771" x="379.4" y="212.1469">conduce</text><text fill="#000000" font-family="sans-serif" font-size="13" lengthAdjust="spacing" textLength="8.271" x="379.9856" y="189.0331">1</text><text fill="#000000" font-family="sans-serif" font-size="13" lengthAdjust="spacing" textLength="8.271" x="359.8842" y="235.0803">1</text></g><!--link Vehiculo to Pasajero--><g id="link_Vehiculo_Pasajero"><path codeLine="53" d="M252.56,424.8 C228.64,449.76 206.9014,472.448 183.4614,496.908 " fill="none" id="Vehiculo-to-Pasajero" style="stroke:#181818;stroke-width:1.0;"/><polygon fill="#181818" points="179.31,501.24,188.425,497.5096,182.7695,497.63,182.649,491.9744,179.31,501.24" style="stroke:#181818;stroke-width:1.0;"/><text fill="#000000" font-family="sans-serif" font-size="13" lengthAdjust="spacing" textLength="68.0342" x="221.4" y="467.5169">transporta</text><text fill="#000000" font-family="sans-serif" font-size="13" lengthAdjust="spacing" textLength="8.271" x="237.4908" y="444.6045">1</text><text fill="#000000" font-family="sans-serif" font-size="13" lengthAdjust="spacing" textLength="6.5" x="179.9145" y="490.4086">*</text></g><!--link Vehiculo to Ruta--><g id="link_Vehiculo_Ruta"><path codeLine="54" d="M337.4,424.8 C337.4,449.76 337.4,470.78 337.4,495.24 " fill="none" id="Vehiculo-to-Ruta" style="stroke:#181818;stroke-width:1.0;"/><polygon fill="#181818" points="337.4,501.24,341.4,492.24,337.4,496.24,333.4,492.24,337.4,501.24" style="stroke:#181818;stroke-width:1.0;"/><text fill="#000000" font-family="sans-serif" font-size="13" lengthAdjust="spacing" textLength="34.874" x="338.4" y="467.5169">sigue</text><text fill="#000000" font-family="sans-serif" font-size="13" lengthAdjust="spacing" textLength="8.271" x="329.0915" y="444.6045">1</text><text fill="#000000" font-family="sans-serif" font-size="13" lengthAdjust="spacing" textLength="8.271" x="329.0551" y="490.4086">1</text></g><!--link Conductor to Tarifa--><g id="link_Conductor_Tarifa"><path codeLine="55" d="M445.2,169.17 C481.53,283.98 531.13,499.5 459.4,663.53 C443.62,699.63 418.8923,727.0424 389.5423,751.4624 " fill="none" id="Conductor-to-Tarifa" style="stroke:#181818;stroke-width:1.0;"/><polygon fill="#181818" points="384.93,755.3,394.4068,752.6185,388.7736,752.102,389.2901,746.4688,384.93,755.3" style="stroke:#181818;stroke-width:1.0;"/><text fill="#000000" font-family="sans-serif" font-size="13" lengthAdjust="spacing" textLength="36.6641" x="496.4" y="467.5169">cobra</text><text fill="#000000" font-family="sans-serif" font-size="13" lengthAdjust="spacing" textLength="8.271" x="439.4209" y="189.1365">1</text><text fill="#000000" font-family="sans-serif" font-size="13" lengthAdjust="spacing" textLength="8.271" x="392.7216" y="746.7333">1</text></g><!--link Pasajero to Tarifa--><g id="link_Pasajero_Tarifa"><path codeLine="56" d="M171.23,663.88 C192.52,688.75 211.9277,711.4123 232.7077,735.6823 " fill="none" id="Pasajero-to-Tarifa" style="stroke:#181818;stroke-width:1.0;"/><polygon fill="#181818" points="236.61,740.24,233.795,730.802,233.3581,736.442,227.7182,736.005,236.61,740.24" style="stroke:#181818;stroke-width:1.0;"/><text fill="#000000" font-family="sans-serif" font-size="13" lengthAdjust="spacing" textLength="32.4365" x="207.4" y="706.5969">paga</text><text fill="#000000" font-family="sans-serif" font-size="13" lengthAdjust="spacing" textLength="8.271" x="168.8126" y="683.5917">1</text><text fill="#000000" font-family="sans-serif" font-size="13" lengthAdjust="spacing" textLength="8.271" x="222.1471" y="729.3714">1</text></g><!--SRC=[bLCnJ_Cm4DtpAwmky84wi4Q8vGC998QALkmN-mXNfNPqTXX0_7SkTkmceXt84DlldNtFxyww0-_LAxwJ7ZgdlYebtvfChRQ1oRPfVG1PI00iOGqzQ38WqKysO8kSy42zgzLE_ldWXACFO8HvYEE2koPBce2to1yoSPV_4ln65Zhw_4qmjkG30s-0mO30trMbust-Esi67HoVkuvrXuPnYNMaqOg29Vhk67nElRnbLhmRsFwMkq2BrYV9O6AQkTuDUDWZdtSVWpDk0-rawZWx6hq3tcE0H4sBn7hep96-TqFJOHBKGmlyIf8rI_H3Gvmhai46zZ07Y-AN8S1Vp1rjvD70P_7XzZ6jxXBNn_hvYKlLd2WZ2AIYpDMx9g15tb8x44f5IWT4LaCtTYhl20-zarQZWpJRNBrOGczdzVUCiTQpZDbdsLLiblaa4hqUHCPoIv6nYSTbST1Bdm7Vvpr9reLwmKvUahFebNPMIOY9dIHlgpgsy-fcfTRhkpZcijJZ1k5HLUKLbxYhLMckMaa3MjyxbjAT29Lnh6gjlDWgXvtEcatGhc4vfdJkgPYnoNu0]--></g></svg>