<svg xmlns="http://www.w3.org/2000/svg" xmlns:xlink="http://www.w3.org/1999/xlink" contentStyleType="text/css" height="828px" preserveAspectRatio="none" style="width:539px;height:828px;background:#FFFFFF;" version="1.1" viewBox="0 0 539 828" width="539px" zoomAndPan="magnify"><defs/><g><!--class Vehiculo--><g id="elem_Vehiculo"><rect codeLine="1" fill="#F1F1F1" height="162.0781" id="Vehiculo" rx="2.5" ry="2.5" style="stroke:#181818;stroke-width:0.5;" width="190.2334" x="242.29" y="229.79"/><ellipse cx="303.1674" cy="245.79" fill="#ADD1B2" rx="11" ry="11" style="stroke:#181818;stroke-width:1.0;"/><path d="M306.1362,251.4306 Q305.5581,251.7275 304.9174,251.8681 Q304.2768,252.0244 303.5737,252.0244 Q301.0737,252.0244 299.7456,250.3837 Q298.4331,248.7275 298.4331,245.6025 Q298.4331,242.4775 299.7456,240.8212 Q301.0737,239.165 303.5737,239.165 Q304.2768,239.165 304.9174,239.3212 Q305.5737,239.4775 306.1362,239.7744 L306.1362,242.4931 Q305.5112,241.915 304.9174,241.6494 Q304.3237,241.3681 303.6987,241.3681 Q302.3549,241.3681 301.6674,242.4462 Q300.9799,243.5087 300.9799,245.6025 Q300.9799,247.6962 301.6674,248.7744 Q302.3549,249.8369 303.6987,249.8369 Q304.3237,249.8369 304.9174,249.5712 Q305.5112,249.29 306.1362,248.7119 L306.1362,251.4306 Z " fill="#000000"/><text fill="#000000" font-family="sans-serif" font-size="14" lengthAdjust="spacing" textLength="59.9785" x="323.6674" y="250.6367">Vehiculo</text><line style="stroke:#181818;stroke-width:0.5;" x1="243.29" x2="431.5234" y1="261.79" y2="261.79"/><rect fill="none" height="6" style="stroke:#C82930;stroke-width:1.0;" width="6" x="250.29" y="272.4384"/><text fill="#000000" font-family="sans-serif" font-size="14" lengthAdjust="spacing" textLength="117.3389" x="262.29" y="278.7851">matricula: String</text><rect fill="none" height="6" style="stroke:#C82930;stroke-width:1.0;" width="6" x="250.29" y="288.7353"/><text fill="#000000" font-family="sans-serif" font-size="14" lengthAdjust="spacing" textLength="131.209" x="262.29" y="295.082">capacidad: Integer</text><rect fill="none" height="6" style="stroke:#C82930;stroke-width:1.0;" width="6" x="250.29" y="305.0322"/><text fill="#000000" font-family="sans-serif" font-size="14" lengthAdjust="spacing" textLength="125.8701" x="262.29" y="311.3789">tipo: TipoVehiculo</text><rect fill="none" height="6" style="stroke:#C82930;stroke-width:1.0;" width="6" x="250.29" y="321.3291"/><text fill="#000000" font-family="sans-serif" font-size="14" lengthAdjust="spacing" textLength="164.2334" x="262.29" y="327.6757">estado: EstadoVehiculo</text><line style="stroke:#181818;stroke-width:0.5;" x1="243.29" x2="431.5234" y1="334.9775" y2="334.9775"/><ellipse cx="253.29" cy="348.6259" fill="#84BE84" rx="3" ry="3" style="stroke:#038048;stroke-width:1.0;"/><text fill="#000000" font-family="sans-serif" font-size="14" lengthAdjust="spacing" textLength="109.0811" x="262.29" y="351.9726">iniciarServicio()</text><ellipse cx="253.29" cy="364.9228" fill="#84BE84" rx="3" ry="3" style="stroke:#038048;stroke-width:1.0;"/><text fill="#000000" font-family="sans-serif" font-size="14" lengthAdjust="spacing" textLength="122.2402" x="262.29" y="368.2695">finalizarServicio()</text><ellipse cx="253.29" cy="381.2197" fill="#84BE84" rx="3" ry="3" style="stroke:#038048;stroke-width:1.0;"/><text fill="#000000" font-family="sans-serif" font-size="14" lengthAdjust="spacing" textLength="119.7656" x="262.29" y="384.5664">registrarParada()</text></g><!--class Conductor--><g id="elem_Conductor"><rect codeLine="11" fill="#F1F1F1" height="145.7813" id="Conductor" rx="2.5" ry="2.5" style="stroke:#181818;stroke-width:0.5;" width="180.1777" x="326.31" y="7"/><ellipse cx="375.9081" cy="23" fill="#ADD1B2" rx="11" ry="11" style="stroke:#181818;stroke-width:1.0;"/><path d="M378.8769,28.6406 Q378.2988,28.9375 377.6581,29.0781 Q377.0175,29.2344 376.3144,29.2344 Q373.8144,29.2344 372.4863,27.5938 Q371.1738,25.9375 371.1738,22.8125 Q371.1738,19.6875 372.4863,18.0313 Q373.8144,16.375 376.3144,16.375 Q377.0175,16.375 377.6581,16.5313 Q378.3144,16.6875 378.8769,16.9844 L378.8769,19.7031 Q378.2519,19.125 377.6581,18.8594 Q377.0644,18.5781 376.4394,18.5781 Q375.0956,18.5781 374.4081,19.6563 Q373.7206,20.7188 373.7206,22.8125 Q373.7206,24.9063 374.4081,25.9844 Q375.0956,27.0469 376.4394,27.0469 Q377.0644,27.0469 377.6581,26.7813 Q378.2519,26.5 378.8769,25.9219 L378.8769,28.6406 Z " fill="#000000"/><text fill="#000000" font-family="sans-serif" font-size="14" lengthAdjust="spacing" textLength="72.4814" x="396.4081" y="27.8467">Conductor</text><line style="stroke:#181818;stroke-width:0.5;" x1="327.31" x2="505.4877" y1="39" y2="39"/><rect fill="none" height="6" style="stroke:#C82930;stroke-width:1.0;" width="6" x="334.31" y="49.6484"/><text fill="#000000" font-family="sans-serif" font-size="14" lengthAdjust="spacing" textLength="105.2803" x="346.31" y="55.9951">nombre: String</text><rect fill="none" height="6" style="stroke:#C82930;stroke-width:1.0;" width="6" x="334.31" y="65.9453"/><text fill="#000000" font-family="sans-serif" font-size="14" lengthAdjust="spacing" textLength="104.0771" x="346.31" y="72.292">licencia: String</text><rect fill="none" height="6" style="stroke:#C82930;stroke-width:1.0;" width="6" x="334.31" y="82.2422"/><text fill="#000000" font-family="sans-serif" font-size="14" lengthAdjust="spacing" textLength="154.1777" x="346.31" y="88.5889">horasServicio: Integer</text><line style="stroke:#181818;stroke-width:0.5;" x1="327.31" x2="505.4877" y1="95.8906" y2="95.8906"/><ellipse cx="337.31" cy="109.5391" fill="#84BE84" rx="3" ry="3" style="stroke:#038048;stroke-width:1.0;"/><text fill="#000000" font-family="sans-serif" font-size="14" lengthAdjust="spacing" textLength="94.1172" x="346.31" y="112.8857">iniciarTurno()</text><ellipse cx="337.31" cy="125.8359" fill="#84BE84" rx="3" ry="3" style="stroke:#038048;stroke-width:1.0;"/><text fill="#000000" font-family="sans-serif" font-size="14" lengthAdjust="spacing" textLength="107.2764" x="346.31" y="129.1826">finalizarTurno()</text><ellipse cx="337.31" cy="142.1328" fill="#84BE84" rx="3" ry="3" style="stroke:#038048;stroke-width:1.0;"/><text fill="#000000" font-family="sans-serif" font-size="14" lengthAdjust="spacing" textLength="142.0713" x="346.31" y="145.4795">registrarIncidencia()</text></g><!--class Pasajero--><g id="elem_Pasajero"><rect codeLine="20" fill="#F1F1F1" height="145.7813" id="Pasajero" rx="2.5" ry="2.5" style="stroke:#181818;stroke-width:0.5;" width="190.8076" x="7" y="468.86"/><ellipse cx="68.2944" cy="484.86" fill="#ADD1B2" rx="11" ry="11" style="stroke:#181818;stroke-width:1.0;"/><path d="M71.2632,490.5006 Q70.6851,490.7975 70.0444,490.9381 Q69.4038,491.0944 68.7007,491.0944 Q66.2007,491.0944 64.8726,489.4538 Q63.5601,487.7975 63.5601,484.6725 Q63.5601,481.5475 64.8726,479.8913 Q66.2007,478.235 68.7007,478.235 Q69.4038,478.235 70.0444,478.3913 Q70.7007,478.5475 71.2632,478.8444 L71.2632,481.5631 Q70.6382,480.985 70.0444,480.7194 Q69.4507,480.4381 68.8257,480.4381 Q67.4819,480.4381 66.7944,481.5163 Q66.1069,482.5788 66.1069,484.6725 Q66.1069,486.7663 66.7944,487.8444 Q67.4819,488.9069 68.8257,488.9069 Q69.4507,488.9069 70.0444,488.6413 Q70.6382,488.36 71.2632,487.7819 L71.2632,490.5006 Z " fill="#000000"/><text fill="#000000" font-family="sans-serif" font-size="14" lengthAdjust="spacing" textLength="59.7188" x="88.7944" y="489.7067">Pasajero</text><line style="stroke:#181818;stroke-width:0.5;" x1="8" x2="196.8076" y1="500.86" y2="500.86"/><rect fill="none" height="6" style="stroke:#C82930;stroke-width:1.0;" width="6" x="15" y="511.5084"/><text fill="#000000" font-family="sans-serif" font-size="14" lengthAdjust="spacing" textLength="161.7656" x="27" y="517.8551">metodoPago: TipoPago</text><rect fill="none" height="6" style="stroke:#C82930;stroke-width:1.0;" width="6" x="15" y="527.8053"/><text fill="#000000" font-family="sans-serif" font-size="14" lengthAdjust="spacing" textLength="164.8076" x="27" y="534.152">tipoTarjeta: TipoTarjeta</text><rect fill="none" height="6" style="stroke:#C82930;stroke-width:1.0;" width="6" x="15" y="544.1022"/><text fill="#000000" font-family="sans-serif" font-size="14" lengthAdjust="spacing" textLength="145.4482" x="27" y="550.4489">saldoTarjeta: Double</text><line style="stroke:#181818;stroke-width:0.5;" x1="8" x2="196.8076" y1="557.7506" y2="557.7506"/><ellipse cx="18" cy="571.3991" fill="#84BE84" rx="3" ry="3" style="stroke:#038048;stroke-width:1.0;"/><text fill="#000000" font-family="sans-serif" font-size="14" lengthAdjust="spacing" textLength="86.1602" x="27" y="574.7457">pagarViaje()</text><ellipse cx="18" cy="587.6959" fill="#84BE84" rx="3" ry="3" style="stroke:#038048;stroke-width:1.0;"/><text fill="#000000" font-family="sans-serif" font-size="14" lengthAdjust="spacing" textLength="105.6016" x="27" y="591.0426">subirVehiculo()</text><ellipse cx="18" cy="603.9928" fill="#84BE84" rx="3" ry="3" style="stroke:#038048;stroke-width:1.0;"/><text fill="#000000" font-family="sans-serif" font-size="14" lengthAdjust="spacing" textLength="106.5928" x="27" y="607.3395">bajarVehiculo()</text></g><!--class Ruta--><g id="elem_Ruta"><rect codeLine="29" fill="#F1F1F1" height="145.7813" id="Ruta" rx="2.5" ry="2.5" style="stroke:#181818;stroke-width:0.5;" width="209.2168" x="232.8" y="468.86"/><ellipse cx="316.8239" cy="484.86" fill="#ADD1B2" rx="11" ry="11" style="stroke:#181818;stroke-width:1.0;"/><path d="M319.7927,490.5006 Q319.2146,490.7975 318.5739,490.9381 Q317.9333,491.0944 317.2302,491.0944 Q314.7302,491.0944 313.4021,489.4538 Q312.0896,487.7975 312.0896,484.6725 Q312.0896,481.5475 313.4021,479.8913 Q314.7302,478.235 317.2302,478.235 Q317.9333,478.235 318.5739,478.3913 Q319.2302,478.5475 319.7927,478.8444 L319.7927,481.5631 Q319.1677,480.985 318.5739,480.7194 Q317.9802,480.4381 317.3552,480.4381 Q316.0114,480.4381 315.3239,481.5163 Q314.6364,482.5788 314.6364,484.6725 Q314.6364,486.7663 315.3239,487.8444 Q316.0114,488.9069 317.3552,488.9069 Q317.9802,488.9069 318.5739,488.6413 Q319.1677,488.36 319.7927,487.7819 L319.7927,490.5006 Z " fill="#000000"/><text fill="#000000" font-family="sans-serif" font-size="14" lengthAdjust="spacing" textLength="32.6689" x="337.3239" y="489.7067">Ruta</text><line style="stroke:#181818;stroke-width:0.5;" x1="233.8" x2="441.0168" y1="500.86" y2="500.86"/><rect fill="none" height="6" style="stroke:#C82930;stroke-width:1.0;" width="6" x="240.8" y="511.5084"/><text fill="#000000" font-family="sans-serif" font-size="14" lengthAdjust="spacing" textLength="105.2803" x="252.8" y="517.8551">nombre: String</text><rect fill="none" height="6" style="stroke:#C82930;stroke-width:1.0;" width="6" x="240.8" y="527.8053"/><text fill="#000000" font-family="sans-serif" font-size="14" lengthAdjust="spacing" textLength="158.7236" x="252.8" y="534.152">horario: List&lt;Horario&gt;</text><rect fill="none" height="6" style="stroke:#C82930;stroke-width:1.0;" width="6" x="240.8" y="544.1022"/><text fill="#000000" font-family="sans-serif" font-size="14" lengthAdjust="spacing" textLength="162.4834" x="252.8" y="550.4489">paradas: List&lt;Parada&gt;</text><rect fill="none" height="6" style="stroke:#C82930;stroke-width:1.0;" width="6" x="240.8" y="560.3991"/><text fill="#000000" font-family="sans-serif" font-size="14" lengthAdjust="spacing" textLength="121.9531" x="252.8" y="566.7457">distancia: Double</text><line style="stroke:#181818;stroke-width:0.5;" x1="233.8" x2="441.0168" y1="574.0475" y2="574.0475"/><ellipse cx="243.8" cy="587.6959" fill="#84BE84" rx="3" ry="3" style="stroke:#038048;stroke-width:1.0;"/><text fill="#000000" font-family="sans-serif" font-size="14" lengthAdjust="spacing" textLength="180.5576" x="252.8" y="591.0426">obtenerSiguienteParada()</text><ellipse cx="243.8" cy="603.9928" fill="#84BE84" rx="3" ry="3" style="stroke:#038048;stroke-width:1.0;"/><text fill="#000000" font-family="sans-serif" font-size="14" lengthAdjust="spacing" textLength="183.2168" x="252.8" y="607.3395">calcularTiempoEstimado()</text></g><!--class Tarifa--><g id="elem_Tarifa"><rect codeLine="38" fill="#F1F1F1" height="129.4844" id="Tarifa" rx="2.5" ry="2.5" style="stroke:#181818;stroke-width:0.5;" width="172.46" x="212.17" y="691.65"/><ellipse cx="274.0079" cy="707.65" fill="#ADD1B2" rx="11" ry="11" style="stroke:#181818;stroke-width:1.0;"/><path d="M276.9766,713.2906 Q276.3985,713.5875 275.7579,713.7281 Q275.1173,713.8844 274.4141,713.8844 Q271.9141,713.8844 270.586,712.2438 Q269.2735,710.5875 269.2735,707.4625 Q269.2735,704.3375 270.586,702.6813 Q271.9141,701.025 274.4141,701.025 Q275.1173,701.025 275.7579,701.1813 Q276.4141,701.3375 276.9766,701.6344 L276.9766,704.3531 Q276.3516,703.775 275.7579,703.5094 Q275.1641,703.2281 274.5391,703.2281 Q273.1954,703.2281 272.5079,704.3063 Q271.8204,705.3688 271.8204,707.4625 Q271.8204,709.5563 272.5079,710.6344 Q273.1954,711.6969 274.5391,711.6969 Q275.1641,711.6969 275.7579,711.4313 Q276.3516,711.15 276.9766,710.5719 L276.9766,713.2906 Z " fill="#000000"/><text fill="#000000" font-family="sans-serif" font-size="14" lengthAdjust="spacing" textLength="40.2842" x="294.5079" y="712.4967">Tarifa</text><line style="stroke:#181818;stroke-width:0.5;" x1="213.17" x2="383.63" y1="723.65" y2="723.65"/><rect fill="none" height="6" style="stroke:#C82930;stroke-width:1.0;" width="6" x="220.17" y="734.2984"/><text fill="#000000" font-family="sans-serif" font-size="14" lengthAdjust="spacing" textLength="102.1836" x="232.17" y="740.6451">precio: Double</text><rect fill="none" height="6" style="stroke:#C82930;stroke-width:1.0;" width="6" x="220.17" y="750.5953"/><text fill="#000000" font-family="sans-serif" font-size="14" lengthAdjust="spacing" textLength="146.46" x="232.17" y="756.942">tipoTarifa: TipoTarifa</text><rect fill="none" height="6" style="stroke:#C82930;stroke-width:1.0;" width="6" x="220.17" y="766.8922"/><text fill="#000000" font-family="sans-serif" font-size="14" lengthAdjust="spacing" textLength="131.6807" x="232.17" y="773.2389">descuento: Double</text><line style="stroke:#181818;stroke-width:0.5;" x1="213.17" x2="383.63" y1="780.5406" y2="780.5406"/><ellipse cx="223.17" cy="794.1891" fill="#84BE84" rx="3" ry="3" style="stroke:#038048;stroke-width:1.0;"/><text fill="#000000" font-family="sans-serif" font-size="14" lengthAdjust="spacing" textLength="108.8486" x="232.17" y="797.5357">calcularPrecio()</text><ellipse cx="223.17" cy="810.4859" fill="#84BE84" rx="3" ry="3" style="stroke:#038048;stroke-width:1.0;"/><text fill="#000000" font-family="sans-serif" font-size="14" lengthAdjust="spacing" textLength="133" x="232.17" y="813.8326">aplicarDescuento()</text></g><!--link Conductor to Vehiculo--><g id="link_Conductor_Vehiculo"><path codeLine="47" d="M391.52,153.02 C383.15,177.26 375.7162,198.7878 367.1462,223.6378 " fill="none" id="Conductor-to-Vehiculo" style="stroke:#181818;stroke-width:1.0;"/><polygon fill="#181818" points="365.19,229.31,371.9057,222.1059,366.8201,224.5832,364.3428,219.4976,365.19,229.31" style="stroke:#181818;stroke-width:1.0;"/><text fill="#000000" font-family="sans-serif" font-size="13" lengthAdjust="spacing" textLength="54.9771" x="379.4" y="195.8569">conduce</text><text fill="#000000" font-family="sans-serif" font-size="13" lengthAdjust="spacing" textLength="8.271" x="380.7804" y="172.7782">1</text><text fill="#000000" font-family="sans-serif" font-size="13" lengthAdjust="spacing" textLength="8.271" x="359.2455" y="218.7325">1</text></g><!--link Vehiculo to Pasajero--><g id="link_Vehiculo_Pasajero"><path codeLine="48" d="M254.88,392.22 C229.36,417.08 205.7083,440.1238 180.7883,464.3938 " fill="none" id="Vehiculo-to-Pasajero" style="stroke:#181818;stroke-width:1.0;"/><polygon fill="#181818" points="176.49,468.58,185.7283,465.1662,180.0719,465.0915,180.1467,459.4351,176.49,468.58" style="stroke:#181818;stroke-width:1.0;"/><text fill="#000000" font-family="sans-serif" font-size="13" lengthAdjust="spacing" textLength="68.0342" x="221.4" y="434.9269">transporta</text><text fill="#000000" font-family="sans-serif" font-size="13" lengthAdjust="spacing" textLength="8.271" x="239.4558" y="411.9317">1</text><text fill="#000000" font-family="sans-serif" font-size="13" lengthAdjust="spacing" textLength="6.5" x="177.5122" y="457.7124">*</text></g><!--link Vehiculo to Ruta--><g id="link_Vehiculo_Ruta"><path codeLine="49" d="M337.4,392.22 C337.4,417.08 337.4,438.31 337.4,462.58 " fill="none" id="Vehiculo-to-Ruta" style="stroke:#181818;stroke-width:1.0;"/><polygon fill="#181818" points="337.4,468.58,341.4,459.58,337.4,463.58,333.4,459.58,337.4,468.58" style="stroke:#181818;stroke-width:1.0;"/><text fill="#000000" font-family="sans-serif" font-size="13" lengthAdjust="spacing" textLength="34.874" x="338.4" y="434.9269">sigue</text><text fill="#000000" font-family="sans-serif" font-size="13" lengthAdjust="spacing" textLength="8.271" x="329.0673" y="411.9317">1</text><text fill="#000000" font-family="sans-serif" font-size="13" lengthAdjust="spacing" textLength="8.271" x="329.0188" y="457.7124">1</text></g><!--link Conductor to Tarifa--><g id="link_Conductor_Tarifa"><path codeLine="50" d="M443.52,152.92 C478.95,259.18 528.78,461.86 459.4,614.65 C443.52,649.63 418.8844,675.6413 389.5444,698.6113 " fill="none" id="Conductor-to-Tarifa" style="stroke:#181818;stroke-width:1.0;"/><polygon fill="#181818" points="384.82,702.31,394.3724,699.9116,388.757,699.2278,389.4408,693.6124,384.82,702.31" style="stroke:#181818;stroke-width:1.0;"/><text fill="#000000" font-family="sans-serif" font-size="13" lengthAdjust="spacing" textLength="36.6641" x="494.4" y="434.9269">cobra</text><text fill="#000000" font-family="sans-serif" font-size="13" lengthAdjust="spacing" textLength="8.271" x="437.8093" y="172.9205">1</text><text fill="#000000" font-family="sans-serif" font-size="13" lengthAdjust="spacing" textLength="8.271" x="392.6021" y="694.0904">1</text></g><!--link Pasajero to Tarifa--><g id="link_Pasajero_Tarifa"><path codeLine="51" d="M169.03,615.04 C191.9,639.84 213.233,662.9887 235.443,687.0787 " fill="none" id="Pasajero-to-Tarifa" style="stroke:#181818;stroke-width:1.0;"/><polygon fill="#181818" points="239.51,691.49,236.3503,682.1617,236.1208,687.8139,230.4686,687.5844,239.51,691.49" style="stroke:#181818;stroke-width:1.0;"/><text fill="#000000" font-family="sans-serif" font-size="13" lengthAdjust="spacing" textLength="32.4365" x="207.4" y="657.7169">paga</text><text fill="#000000" font-family="sans-serif" font-size="13" lengthAdjust="spacing" textLength="8.271" x="167.012" y="634.8135">1</text><text fill="#000000" font-family="sans-serif" font-size="13" lengthAdjust="spacing" textLength="8.271" x="224.6462" y="680.6452">1</text></g><!--SRC=[VLCzJyCm4DtpAwmkVAa3QuHO00aaXefMx1VxIAzAxUZiC83uxrpis4r4HOROUS_slRnxrXruhzvnJthedFgkb3ph8mGU0QZLLcQsJR267ZGPCBLwiG5Rv8G7wbsjTlBE1oKSVG0Zp5CS5zmDMT84l4N-b8cxl4hm1rdewEilmTYI3moy0GO30lzKbOxg7vmrWmwEitphZWtZKdj76grKNA9xn-1pgULVPOMxWUrVUGkqQ7kH2YQMcUlRW8S3yibT3Cwu3RIJQUFiPEGE-8014ZLz9DP3PqxqenkQ3fE07bhWTv8gMP8V6kBiU0OREC0SB0hVXW3_cJVQnAD1h_AVTy_fwpvnVUo7dxZKdOaoWa0oVQxMDG4jyfRQWL0SBnsDh8PkJ1xl28-za-ZGKS8pLoiMq4VHspF6tiqgP1zbLR5HvfCez7gGiiijfUmc7fV5G2-v0NxCUvAC2_M6dTm4Pz4hxQoI9IOcG-v6TOhZwdQbrklxE6RRwt63yAYgSklAkkjL2Kkj953MzuwbDMUMoZXshLPUR9J3pbVD9cZNi1nJadXkpHYYNm00]--></g></svg>