<svg xmlns="http://www.w3.org/2000/svg" xmlns:xlink="http://www.w3.org/1999/xlink" contentStyleType="text/css" height="360px" preserveAspectRatio="none" style="width:424px;height:360px;background:#FFFFFF;" version="1.1" viewBox="0 0 424 360" width="424px" zoomAndPan="magnify"><defs/><g><!--class Vehiculo--><g id="elem_Vehiculo"><rect codeLine="1" fill="#F1F1F1" height="48" id="Vehiculo" rx="2.5" ry="2.5" style="stroke:#181818;stroke-width:0.5;" width="91.9785" x="118.48" y="7"/><ellipse cx="133.48" cy="23" fill="#ADD1B2" rx="11" ry="11" style="stroke:#181818;stroke-width:1.0;"/><path d="M136.4488,28.6406 Q135.8706,28.9375 135.23,29.0781 Q134.5894,29.2344 133.8863,29.2344 Q131.3863,29.2344 130.0581,27.5938 Q128.7456,25.9375 128.7456,22.8125 Q128.7456,19.6875 130.0581,18.0313 Q131.3863,16.375 133.8863,16.375 Q134.5894,16.375 135.23,16.5313 Q135.8863,16.6875 136.4488,16.9844 L136.4488,19.7031 Q135.8238,19.125 135.23,18.8594 Q134.6363,18.5781 134.0113,18.5781 Q132.6675,18.5781 131.98,19.6563 Q131.2925,20.7188 131.2925,22.8125 Q131.2925,24.9063 131.98,25.9844 Q132.6675,27.0469 134.0113,27.0469 Q134.6363,27.0469 135.23,26.7813 Q135.8238,26.5 136.4488,25.9219 L136.4488,28.6406 Z " fill="#000000"/><text fill="#000000" font-family="sans-serif" font-size="14" lengthAdjust="spacing" textLength="59.9785" x="147.48" y="27.8467">Vehiculo</text><line style="stroke:#181818;stroke-width:0.5;" x1="119.48" x2="209.4585" y1="39" y2="39"/><line style="stroke:#181818;stroke-width:0.5;" x1="119.48" x2="209.4585" y1="47" y2="47"/></g><!--class Conductor--><g id="elem_Conductor"><rect codeLine="4" fill="#F1F1F1" height="48" id="Conductor" rx="2.5" ry="2.5" style="stroke:#181818;stroke-width:0.5;" width="104.4814" x="112.23" y="140.15"/><ellipse cx="127.23" cy="156.15" fill="#ADD1B2" rx="11" ry="11" style="stroke:#181818;stroke-width:1.0;"/><path d="M130.1988,161.7906 Q129.6206,162.0875 128.98,162.2281 Q128.3394,162.3844 127.6363,162.3844 Q125.1363,162.3844 123.8081,160.7437 Q122.4956,159.0875 122.4956,155.9625 Q122.4956,152.8375 123.8081,151.1812 Q125.1363,149.525 127.6363,149.525 Q128.3394,149.525 128.98,149.6812 Q129.6363,149.8375 130.1988,150.1344 L130.1988,152.8531 Q129.5738,152.275 128.98,152.0094 Q128.3863,151.7281 127.7613,151.7281 Q126.4175,151.7281 125.73,152.8062 Q125.0425,153.8687 125.0425,155.9625 Q125.0425,158.0562 125.73,159.1344 Q126.4175,160.1969 127.7613,160.1969 Q128.3863,160.1969 128.98,159.9312 Q129.5738,159.65 130.1988,159.0719 L130.1988,161.7906 Z " fill="#000000"/><text fill="#000000" font-family="sans-serif" font-size="14" lengthAdjust="spacing" textLength="72.4814" x="141.23" y="160.9967">Conductor</text><line style="stroke:#181818;stroke-width:0.5;" x1="113.23" x2="215.7114" y1="172.15" y2="172.15"/><line style="stroke:#181818;stroke-width:0.5;" x1="113.23" x2="215.7114" y1="180.15" y2="180.15"/></g><!--class Pasajero--><g id="elem_Pasajero"><rect codeLine="7" fill="#F1F1F1" height="64.2969" id="Pasajero" rx="2.5" ry="2.5" style="stroke:#181818;stroke-width:0.5;" width="165.1797" x="251.88" y="132"/><ellipse cx="300.3605" cy="148" fill="#ADD1B2" rx="11" ry="11" style="stroke:#181818;stroke-width:1.0;"/><path d="M303.3292,153.6406 Q302.7511,153.9375 302.1105,154.0781 Q301.4698,154.2344 300.7667,154.2344 Q298.2667,154.2344 296.9386,152.5938 Q295.6261,150.9375 295.6261,147.8125 Q295.6261,144.6875 296.9386,143.0313 Q298.2667,141.375 300.7667,141.375 Q301.4698,141.375 302.1105,141.5313 Q302.7667,141.6875 303.3292,141.9844 L303.3292,144.7031 Q302.7042,144.125 302.1105,143.8594 Q301.5167,143.5781 300.8917,143.5781 Q299.548,143.5781 298.8605,144.6563 Q298.173,145.7188 298.173,147.8125 Q298.173,149.9063 298.8605,150.9844 Q299.548,152.0469 300.8917,152.0469 Q301.5167,152.0469 302.1105,151.7813 Q302.7042,151.5 303.3292,150.9219 L303.3292,153.6406 Z " fill="#000000"/><text fill="#000000" font-family="sans-serif" font-size="14" lengthAdjust="spacing" textLength="59.7188" x="320.8605" y="152.8467">Pasajero</text><line style="stroke:#181818;stroke-width:0.5;" x1="252.88" x2="416.0597" y1="164" y2="164"/><rect fill="none" height="6" style="stroke:#C82930;stroke-width:1.0;" width="6" x="259.88" y="174.6484"/><text fill="#000000" font-family="sans-serif" font-size="14" lengthAdjust="spacing" textLength="139.1797" x="271.88" y="180.9951">metodoPago: String</text><line style="stroke:#181818;stroke-width:0.5;" x1="252.88" x2="416.0597" y1="188.2969" y2="188.2969"/></g><!--class Ruta--><g id="elem_Ruta"><rect codeLine="11" fill="#F1F1F1" height="80.5938" id="Ruta" rx="2.5" ry="2.5" style="stroke:#181818;stroke-width:0.5;" width="126.9326" x="7" y="273.3"/><ellipse cx="50.0187" cy="289.3" fill="#ADD1B2" rx="11" ry="11" style="stroke:#181818;stroke-width:1.0;"/><path d="M52.9874,294.9406 Q52.4093,295.2375 51.7687,295.3781 Q51.128,295.5344 50.4249,295.5344 Q47.9249,295.5344 46.5968,293.8937 Q45.2843,292.2375 45.2843,289.1125 Q45.2843,285.9875 46.5968,284.3312 Q47.9249,282.675 50.4249,282.675 Q51.128,282.675 51.7687,282.8312 Q52.4249,282.9875 52.9874,283.2844 L52.9874,286.0031 Q52.3624,285.425 51.7687,285.1594 Q51.1749,284.8781 50.5499,284.8781 Q49.2062,284.8781 48.5187,285.9562 Q47.8312,287.0187 47.8312,289.1125 Q47.8312,291.2062 48.5187,292.2844 Q49.2062,293.3469 50.5499,293.3469 Q51.1749,293.3469 51.7687,293.0812 Q52.3624,292.8 52.9874,292.2219 L52.9874,294.9406 Z " fill="#000000"/><text fill="#000000" font-family="sans-serif" font-size="14" lengthAdjust="spacing" textLength="32.6689" x="70.245" y="294.1467">Ruta</text><line style="stroke:#181818;stroke-width:0.5;" x1="8" x2="132.9326" y1="305.3" y2="305.3"/><rect fill="none" height="6" style="stroke:#C82930;stroke-width:1.0;" width="6" x="15" y="315.9484"/><text fill="#000000" font-family="sans-serif" font-size="14" lengthAdjust="spacing" textLength="100.9326" x="27" y="322.2951">horario: String</text><rect fill="none" height="6" style="stroke:#C82930;stroke-width:1.0;" width="6" x="15" y="332.2453"/><text fill="#000000" font-family="sans-serif" font-size="14" lengthAdjust="spacing" textLength="90.2002" x="27" y="338.592">paradas: List</text><line style="stroke:#181818;stroke-width:0.5;" x1="8" x2="132.9326" y1="345.8937" y2="345.8937"/></g><!--class Tarifa--><g id="elem_Tarifa"><rect codeLine="16" fill="#F1F1F1" height="48" id="Tarifa" rx="2.5" ry="2.5" style="stroke:#181818;stroke-width:0.5;" width="72.2842" x="193.32" y="289.59"/><ellipse cx="208.32" cy="305.59" fill="#ADD1B2" rx="11" ry="11" style="stroke:#181818;stroke-width:1.0;"/><path d="M211.2888,311.2306 Q210.7106,311.5275 210.07,311.6681 Q209.4294,311.8244 208.7263,311.8244 Q206.2263,311.8244 204.8981,310.1838 Q203.5856,308.5275 203.5856,305.4025 Q203.5856,302.2775 204.8981,300.6213 Q206.2263,298.965 208.7263,298.965 Q209.4294,298.965 210.07,299.1213 Q210.7263,299.2775 211.2888,299.5744 L211.2888,302.2931 Q210.6638,301.715 210.07,301.4494 Q209.4763,301.1681 208.8513,301.1681 Q207.5075,301.1681 206.82,302.2463 Q206.1325,303.3088 206.1325,305.4025 Q206.1325,307.4963 206.82,308.5744 Q207.5075,309.6369 208.8513,309.6369 Q209.4763,309.6369 210.07,309.3713 Q210.6638,309.09 211.2888,308.5119 L211.2888,311.2306 Z " fill="#000000"/><text fill="#000000" font-family="sans-serif" font-size="14" lengthAdjust="spacing" textLength="40.2842" x="222.32" y="310.4367">Tarifa</text><line style="stroke:#181818;stroke-width:0.5;" x1="194.32" x2="264.6042" y1="321.59" y2="321.59"/><line style="stroke:#181818;stroke-width:0.5;" x1="194.32" x2="264.6042" y1="329.59" y2="329.59"/></g><!--link Conductor to Ruta--><g id="link_Conductor_Ruta"><path codeLine="18" d="M149.57,188.51 C135.13,211.17 112.94,245.98 95.73,272.97 " fill="none" id="Conductor-Ruta" style="stroke:#181818;stroke-width:1.0;"/><text fill="#000000" font-family="sans-serif" font-size="13" lengthAdjust="spacing" textLength="34.874" x="124.47" y="239.3669">sigue</text></g><!--link Vehiculo to Conductor--><g id="link_Vehiculo_Conductor"><path codeLine="19" d="M164.47,55.45 C164.47,79.32 164.47,116.11 164.47,139.9 " fill="none" id="Vehiculo-Conductor" style="stroke:#181818;stroke-width:1.0;"/><text fill="#000000" font-family="sans-serif" font-size="13" lengthAdjust="spacing" textLength="54.9771" x="165.47" y="98.0669">conduce</text></g><!--link Vehiculo to Pasajero--><g id="link_Vehiculo_Pasajero"><path codeLine="20" d="M194.86,55.45 C222.36,76.67 263.1,108.09 293.48,131.53 " fill="none" id="Vehiculo-Pasajero" style="stroke:#181818;stroke-width:1.0;"/><text fill="#000000" font-family="sans-serif" font-size="13" lengthAdjust="spacing" textLength="68.0342" x="256.47" y="98.0669">transporta</text></g><!--link Conductor to Tarifa--><g id="link_Conductor_Tarifa"><path codeLine="21" d="M174.77,188.51 C186.94,216.12 207.07,261.78 219.22,289.34 " fill="none" id="Conductor-Tarifa" style="stroke:#181818;stroke-width:1.0;"/><text fill="#000000" font-family="sans-serif" font-size="13" lengthAdjust="spacing" textLength="36.6641" x="200.47" y="239.3669">cobra</text></g><!--link Vehiculo to Ruta--><g id="link_Vehiculo_Ruta"><path codeLine="22" d="M127.01,55.34 C102.45,73 72.4,99.71 58.47,132 C38.86,177.44 47.92,235.33 57.8,273.14 " fill="none" id="Vehiculo-Ruta" style="stroke:#181818;stroke-width:1.0;"/><text fill="#000000" font-family="sans-serif" font-size="13" lengthAdjust="spacing" textLength="34.874" x="59.47" y="168.7169">sigue</text></g><!--link Pasajero to Tarifa--><g id="link_Pasajero_Tarifa"><path codeLine="23" d="M311.94,196.78 C292.18,224.53 263.89,264.26 246.11,289.22 " fill="none" id="Pasajero-Tarifa" style="stroke:#181818;stroke-width:1.0;"/><text fill="#000000" font-family="sans-serif" font-size="13" lengthAdjust="spacing" textLength="32.4365" x="289.47" y="239.3669">paga</text></g><!--SRC=[LO-n3i8m34JtV8L_e3-GbPMX0iH-f24DAdLb9nFYtsbJqRIRTNxdExi1gdJtVNHvOFgOhp6kQ2SUk-mIorvieNXvMK2YvkqJTzmYiALhaZY6IbvomahrB91OaLcQ8EYWbivHK_NSPkw9abVJcwRSigGnP6-sghDUErfoPJpk_sqj9S6e4ql2yVAQkBWVWeDtdxbzlNDC2FW1]--></g></svg>