<svg xmlns="http://www.w3.org/2000/svg" xmlns:xlink="http://www.w3.org/1999/xlink" contentStyleType="text/css" height="683px" preserveAspectRatio="none" style="width:1345px;height:683px;background:#FFFFFF;" version="1.1" viewBox="0 0 1345 683" width="1345px" zoomAndPan="magnify"><defs/><g><!--cluster Conductor--><g id="cluster_Conductor"><path d="M19.5,7 L311.5,7 A12.5,12.5 0 0 1 324,19.5 L324,28.2969 L7,28.2969 L7,19.5 A12.5,12.5 0 0 1 19.5,7 " fill="#F1F1F1" style="stroke:#F1F1F1;stroke-width:1.0;"/><rect fill="none" height="428" rx="12.5" ry="12.5" style="stroke:#181818;stroke-width:0.5;" width="317" x="7" y="7"/><line style="stroke:#181818;stroke-width:0.5;" x1="7" x2="324" y1="28.2969" y2="28.2969"/><text fill="#000000" font-family="sans-serif" font-size="14" lengthAdjust="spacing" textLength="72.4814" x="129.5" y="23.9951">Conductor</text></g><!--cluster Vehiculo--><g id="cluster_Vehiculo"><path d="M360.5,109 L697.5,109 A12.5,12.5 0 0 1 710,121.5 L710,130.2969 L348,130.2969 L348,121.5 A12.5,12.5 0 0 1 360.5,109 " fill="#F1F1F1" style="stroke:#F1F1F1;stroke-width:1.0;"/><rect fill="none" height="467" rx="12.5" ry="12.5" style="stroke:#181818;stroke-width:0.5;" width="362" x="348" y="109"/><line style="stroke:#181818;stroke-width:0.5;" x1="348" x2="710" y1="130.2969" y2="130.2969"/><text fill="#000000" font-family="sans-serif" font-size="14" lengthAdjust="spacing" textLength="59.9785" x="499.5" y="125.9951">Vehiculo</text></g><!--cluster Pasajero--><g id="cluster_Pasajero"><path d="M1013.5,109 L1286.5,109 A12.5,12.5 0 0 1 1299,121.5 L1299,130.2969 L1001,130.2969 L1001,121.5 A12.5,12.5 0 0 1 1013.5,109 " fill="#F1F1F1" style="stroke:#F1F1F1;stroke-width:1.0;"/><rect fill="none" height="568" rx="12.5" ry="12.5" style="stroke:#181818;stroke-width:0.5;" width="298" x="1001" y="109"/><line style="stroke:#181818;stroke-width:0.5;" x1="1001" x2="1299" y1="130.2969" y2="130.2969"/><text fill="#000000" font-family="sans-serif" font-size="14" lengthAdjust="spacing" textLength="59.7188" x="1120.5" y="125.9951">Pasajero</text></g><g id="Conductor.conductorParado"><rect fill="#F1F1F1" height="50" rx="12.5" ry="12.5" style="stroke:#181818;stroke-width:0.5;" width="91.4355" x="152.28" y="129"/><line style="stroke:#181818;stroke-width:0.5;" x1="152.28" x2="243.7155" y1="155.2969" y2="155.2969"/><text fill="#000000" font-family="sans-serif" font-size="14" lengthAdjust="spacing" textLength="71.4355" x="162.28" y="146.9951">En parada</text></g><g id="Conductor.conduccion"><rect fill="#F1F1F1" height="50" rx="12.5" ry="12.5" style="stroke:#181818;stroke-width:0.5;" width="121.7871" x="186.11" y="256"/><line style="stroke:#181818;stroke-width:0.5;" x1="186.11" x2="307.8971" y1="282.2969" y2="282.2969"/><text fill="#000000" font-family="sans-serif" font-size="14" lengthAdjust="spacing" textLength="101.7871" x="196.11" y="273.9951">En conducci&#243;n</text></g><ellipse cx="198" cy="52" fill="#222222" rx="10" ry="10" style="stroke:#222222;stroke-width:1.0;"/><ellipse cx="82" cy="408" fill="none" rx="11" ry="11" style="stroke:#222222;stroke-width:1.0;"/><ellipse cx="82" cy="408" fill="#222222" rx="6" ry="6" style="stroke:#222222;stroke-width:1.0;"/><g id="Vehiculo.fueraServicio"><rect fill="#F1F1F1" height="50" rx="12.5" ry="12.5" style="stroke:#181818;stroke-width:0.5;" width="140.2646" x="505.87" y="256"/><line style="stroke:#181818;stroke-width:0.5;" x1="505.87" x2="646.1346" y1="282.2969" y2="282.2969"/><text fill="#000000" font-family="sans-serif" font-size="14" lengthAdjust="spacing" textLength="120.2646" x="515.87" y="273.9951">Fuera de servicio</text></g><g id="Vehiculo.enRuta"><rect fill="#F1F1F1" height="50" rx="12.5" ry="12.5" style="stroke:#181818;stroke-width:0.5;" width="70.8662" x="504.57" y="383"/><line style="stroke:#181818;stroke-width:0.5;" x1="504.57" x2="575.4362" y1="409.2969" y2="409.2969"/><text fill="#000000" font-family="sans-serif" font-size="14" lengthAdjust="spacing" textLength="50.8662" x="514.57" y="400.9951">En ruta</text></g><g id="Vehiculo.vehiculoEnParada"><rect fill="#F1F1F1" height="50" rx="12.5" ry="12.5" style="stroke:#181818;stroke-width:0.5;" width="91.4355" x="583.28" y="510"/><line style="stroke:#181818;stroke-width:0.5;" x1="583.28" x2="674.7155" y1="536.2969" y2="536.2969"/><text fill="#000000" font-family="sans-serif" font-size="14" lengthAdjust="spacing" textLength="71.4355" x="593.28" y="527.9951">En parada</text></g><ellipse cx="592" cy="154" fill="#222222" rx="10" ry="10" style="stroke:#222222;stroke-width:1.0;"/><ellipse cx="399" cy="535" fill="none" rx="11" ry="11" style="stroke:#222222;stroke-width:1.0;"/><ellipse cx="399" cy="535" fill="#222222" rx="6" ry="6" style="stroke:#222222;stroke-width:1.0;"/><g id="Pasajero.pasajeroEnParada"><rect fill="#F1F1F1" height="50" rx="12.5" ry="12.5" style="stroke:#181818;stroke-width:0.5;" width="91.4355" x="1069.28" y="256"/><line style="stroke:#181818;stroke-width:0.5;" x1="1069.28" x2="1160.7155" y1="282.2969" y2="282.2969"/><text fill="#000000" font-family="sans-serif" font-size="14" lengthAdjust="spacing" textLength="71.4355" x="1079.28" y="273.9951">En parada</text></g><g id="Pasajero.enPago"><rect fill="#F1F1F1" height="50" rx="12.5" ry="12.5" style="stroke:#181818;stroke-width:0.5;" width="77.0869" x="1017.46" y="383"/><line style="stroke:#181818;stroke-width:0.5;" x1="1017.46" x2="1094.5469" y1="409.2969" y2="409.2969"/><text fill="#000000" font-family="sans-serif" font-size="14" lengthAdjust="spacing" textLength="57.0869" x="1027.46" y="400.9951">En pago</text></g><g id="Pasajero.enTransporte"><rect fill="#F1F1F1" height="50" rx="12.5" ry="12.5" style="stroke:#181818;stroke-width:0.5;" width="115.4707" x="1017.26" y="510"/><line style="stroke:#181818;stroke-width:0.5;" x1="1017.26" x2="1132.7307" y1="536.2969" y2="536.2969"/><text fill="#000000" font-family="sans-serif" font-size="14" lengthAdjust="spacing" textLength="95.4707" x="1027.26" y="527.9951">En transporte</text></g><ellipse cx="1115" cy="154" fill="#222222" rx="10" ry="10" style="stroke:#222222;stroke-width:1.0;"/><ellipse cx="1075" cy="650" fill="none" rx="11" ry="11" style="stroke:#222222;stroke-width:1.0;"/><ellipse cx="1075" cy="650" fill="#222222" rx="6" ry="6" style="stroke:#222222;stroke-width:1.0;"/><!--link *start*Conductor to conductorParado--><g id="link_*start*Conductor_conductorParado"><path d="M198,62.23 C198,77.22 198,101.33 198,122.76 " fill="none" id="*start*Conductor-to-conductorParado" style="stroke:#181818;stroke-width:1.0;"/><polygon fill="#181818" points="198,128.76,202,119.76,198,123.76,194,119.76,198,128.76" style="stroke:#181818;stroke-width:1.0;"/></g><!--link conductorParado to conduccion--><g id="link_conductorParado_conduccion"><path d="M207.56,179.4 C216.2,201.42 226.6389,228.0744 235.2689,250.0744 " fill="none" id="conductorParado-to-conduccion" style="stroke:#181818;stroke-width:1.0;"/><polygon fill="#181818" points="237.46,255.66,237.8971,245.8208,235.6341,251.0053,230.4496,248.7423,237.46,255.66" style="stroke:#181818;stroke-width:1.0;"/><text fill="#000000" font-family="sans-serif" font-size="13" lengthAdjust="spacing" textLength="108.894" x="227" y="222.0669">comienza la ruta</text></g><!--link conduccion to conductorParado--><g id="link_conduccion_conductorParado"><path d="M185.69,260.82 C169.67,252.71 154.3,241.45 145,226 C135.24,209.79 142.6089,196.7599 157.5689,183.4399 " fill="none" id="conduccion-to-conductorParado" style="stroke:#181818;stroke-width:1.0;"/><polygon fill="#181818" points="162.05,179.45,152.6683,182.4474,158.3157,182.7749,157.9882,188.4223,162.05,179.45" style="stroke:#181818;stroke-width:1.0;"/><text fill="#000000" font-family="sans-serif" font-size="13" lengthAdjust="spacing" textLength="65.8252" x="146" y="222.0669">incidencia</text></g><!--link conduccion to *end*Conductor--><g id="link_conduccion_*end*Conductor"><path d="M185.9,302.31 C166.35,310.72 145.52,321.87 129,336 C108.33,353.68 95.6217,377.1803 88.6917,392.0703 " fill="none" id="conduccion-to-*end*Conductor" style="stroke:#181818;stroke-width:1.0;"/><polygon fill="#181818" points="86.16,397.51,93.584,391.0382,88.2698,392.9769,86.3311,387.6626,86.16,397.51" style="stroke:#181818;stroke-width:1.0;"/><text fill="#000000" font-family="sans-serif" font-size="13" lengthAdjust="spacing" textLength="99.2075" x="130" y="349.0669">llega al destino</text></g><!--link conductorParado to *end*Conductor--><g id="link_conductorParado_*end*Conductor"><path d="M151.97,179.23 C124.37,196.55 91.68,222.66 76,256 C53.11,304.67 68.9166,366.5006 76.8366,391.4806 " fill="none" id="conductorParado-to-*end*Conductor" style="stroke:#181818;stroke-width:1.0;"/><polygon fill="#181818" points="78.65,397.2,79.7429,387.412,77.1389,392.4338,72.117,389.8298,78.65,397.2" style="stroke:#181818;stroke-width:1.0;"/><text fill="#000000" font-family="sans-serif" font-size="13" lengthAdjust="spacing" textLength="91.0762" x="77" y="285.5669">fin de servicio</text></g><!--link *start*Vehiculo to fueraServicio--><g id="link_*start*Vehiculo_fueraServicio"><path d="M591.73,164.23 C591.26,177.81 590.01,203.96 587,226 C585.67,235.76 584.8811,240.5419 582.9111,249.7819 " fill="none" id="*start*Vehiculo-to-fueraServicio" style="stroke:#181818;stroke-width:1.0;"/><polygon fill="#181818" points="581.66,255.65,587.4487,247.6819,582.7026,250.7599,579.6246,246.0138,581.66,255.65" style="stroke:#181818;stroke-width:1.0;"/></g><!--link fueraServicio to enRuta--><g id="link_fueraServicio_enRuta"><path d="M568.97,306.4 C562.63,328.42 555.0115,354.8946 548.6715,376.8946 " fill="none" id="fueraServicio-to-enRuta" style="stroke:#181818;stroke-width:1.0;"/><polygon fill="#181818" points="547.01,382.66,553.3458,375.1196,548.3946,377.8555,545.6586,372.9043,547.01,382.66" style="stroke:#181818;stroke-width:1.0;"/><text fill="#000000" font-family="sans-serif" font-size="13" lengthAdjust="spacing" textLength="64.9683" x="561" y="349.0669">inicia ruta</text></g><!--link enRuta to vehiculoEnParada--><g id="link_enRuta_vehiculoEnParada"><path d="M532.81,433.22 C529.94,447.71 528.97,465.97 537,480 C547.12,497.68 560.1148,507.5562 577.8248,516.0062 " fill="none" id="enRuta-to-vehiculoEnParada" style="stroke:#181818;stroke-width:1.0;"/><polygon fill="#181818" points="583.24,518.59,576.8397,511.1042,578.7273,516.4369,573.3947,518.3245,583.24,518.59" style="stroke:#181818;stroke-width:1.0;"/><text fill="#000000" font-family="sans-serif" font-size="13" lengthAdjust="spacing" textLength="29.5293" x="538" y="476.0669">para</text></g><!--link vehiculoEnParada to enRuta--><g id="link_vehiculoEnParada_enRuta"><path d="M611.67,509.66 C596,487.66 576.5303,460.3075 560.8503,438.2875 " fill="none" id="vehiculoEnParada-to-enRuta" style="stroke:#181818;stroke-width:1.0;"/><polygon fill="#181818" points="557.37,433.4,559.3321,443.0514,560.2702,437.4729,565.8488,438.4111,557.37,433.4" style="stroke:#181818;stroke-width:1.0;"/><text fill="#000000" font-family="sans-serif" font-size="13" lengthAdjust="spacing" textLength="81.3643" x="590" y="476.0669">sigue la ruta</text></g><!--link enRuta to *end*Vehiculo--><g id="link_enRuta_*end*Vehiculo"><path d="M504.12,417.13 C477.97,424.81 443.5,438.85 422,463 C406.49,480.42 402.0674,502.475 400.4274,517.585 " fill="none" id="enRuta-to-*end*Vehiculo" style="stroke:#181818;stroke-width:1.0;"/><polygon fill="#181818" points="399.78,523.55,404.7278,515.0342,400.3195,518.5792,396.7745,514.1709,399.78,523.55" style="stroke:#181818;stroke-width:1.0;"/><text fill="#000000" font-family="sans-serif" font-size="13" lengthAdjust="spacing" textLength="99.2075" x="423" y="476.0669">llega al destino</text></g><!--link *start*Pasajero to pasajeroEnParada--><g id="link_*start*Pasajero_pasajeroEnParada"><path d="M1115,164.4 C1115,183.59 1115,221.82 1115,249.67 " fill="none" id="*start*Pasajero-to-pasajeroEnParada" style="stroke:#181818;stroke-width:1.0;"/><polygon fill="#181818" points="1115,255.67,1119,246.67,1115,250.67,1111,246.67,1115,255.67" style="stroke:#181818;stroke-width:1.0;"/></g><!--link pasajeroEnParada to enPago--><g id="link_pasajeroEnParada_enPago"><path d="M1073.9,306.31 C1063.91,314.4 1054.52,324.36 1049,336 C1042.16,350.44 1042.557,362.5236 1046.057,376.7536 " fill="none" id="pasajeroEnParada-to-enPago" style="stroke:#181818;stroke-width:1.0;"/><polygon fill="#181818" points="1047.49,382.58,1049.2247,372.8851,1046.2958,377.7247,1041.4562,374.7958,1047.49,382.58" style="stroke:#181818;stroke-width:1.0;"/><text fill="#000000" font-family="sans-serif" font-size="13" lengthAdjust="spacing" textLength="74.5786" x="1050" y="349.0669">llega el bus</text></g><!--link enPago to pasajeroEnParada--><g id="link_enPago_pasajeroEnParada"><path d="M1094.84,387.98 C1108.19,379.3 1121.62,367.64 1129,353 C1136.3,338.53 1134.8045,326.2213 1129.4245,312.0113 " fill="none" id="enPago-to-pasajeroEnParada" style="stroke:#181818;stroke-width:1.0;"/><polygon fill="#181818" points="1127.3,306.4,1126.7458,316.2333,1129.0704,311.0761,1134.2276,313.4006,1127.3,306.4" style="stroke:#181818;stroke-width:1.0;"/><text fill="#000000" font-family="sans-serif" font-size="13" lengthAdjust="spacing" textLength="31.9858" x="1134" y="349.0669">error</text></g><!--link enPago to enTransporte--><g id="link_enPago_enTransporte"><path d="M1050.99,433.22 C1048.95,447.05 1047.74,464.65 1051,480 C1053.15,490.14 1054.7699,495.2583 1059.0599,504.3083 " fill="none" id="enPago-to-enTransporte" style="stroke:#181818;stroke-width:1.0;"/><polygon fill="#181818" points="1061.63,509.73,1061.3894,499.8841,1059.4883,505.2119,1054.1604,503.3108,1061.63,509.73" style="stroke:#181818;stroke-width:1.0;"/><text fill="#000000" font-family="sans-serif" font-size="13" lengthAdjust="spacing" textLength="116.4287" x="1052" y="476.0669">pago satisfactorio</text></g><!--link enTransporte to *end*Pasajero--><g id="link_enTransporte_*end*Pasajero"><path d="M1075,560.24 C1075,584.62 1075,615.06 1075,632.7 " fill="none" id="enTransporte-to-*end*Pasajero" style="stroke:#181818;stroke-width:1.0;"/><polygon fill="#181818" points="1075,638.7,1079,629.7,1075,633.7,1071,629.7,1075,638.7" style="stroke:#181818;stroke-width:1.0;"/><text fill="#000000" font-family="sans-serif" font-size="13" lengthAdjust="spacing" textLength="99.2075" x="1076" y="605.0669">llega al destino</text></g><!--link conductorParado to fueraServicio--><g id="link_conductorParado_fueraServicio"><path d="M243.99,164.41 C284.93,173.5 346.07,188.85 397,209 C411.98,214.92 414.3,219.43 429,226 C453.58,236.98 475.4841,245.5093 500.0341,254.3393 " fill="none" id="conductorParado-to-fueraServicio" style="stroke:#181818;stroke-width:1.0;"/><polygon fill="#181818" points="505.68,256.37,498.5649,249.56,500.9751,254.6778,495.8573,257.0879,505.68,256.37" style="stroke:#181818;stroke-width:1.0;"/><text fill="#000000" font-family="sans-serif" font-size="13" lengthAdjust="spacing" textLength="148.77" x="430" y="222.0669">asignaci&#243;n de veh&#237;culo</text></g><!--link conduccion to enRuta--><g id="link_conduccion_enRuta"><path d="M257.88,306.34 C266.14,322.02 278.98,341.55 296,353 C360.25,396.23 447.533,405.2391 498.123,406.8491 " fill="none" id="conduccion-to-enRuta" style="stroke:#181818;stroke-width:1.0;"/><polygon fill="#181818" points="504.12,407.04,495.2518,402.7557,499.1225,406.881,494.9973,410.7517,504.12,407.04" style="stroke:#181818;stroke-width:1.0;"/><text fill="#000000" font-family="sans-serif" font-size="13" lengthAdjust="spacing" textLength="54.9771" x="297" y="349.0669">conduce</text></g><!--link vehiculoEnParada to pasajeroEnParada--><g id="link_vehiculoEnParada_pasajeroEnParada"><path d="M664.54,509.62 C685.78,495.41 713.51,477.5 739,463 C854.24,397.45 991.3595,335.5268 1063.3295,304.1668 " fill="none" id="vehiculoEnParada-to-pasajeroEnParada" style="stroke:#181818;stroke-width:1.0;"/><polygon fill="#181818" points="1068.83,301.77,1058.9814,301.6982,1064.2463,303.7673,1062.1771,309.0322,1068.83,301.77" style="stroke:#181818;stroke-width:1.0;"/><text fill="#000000" font-family="sans-serif" font-size="13" lengthAdjust="spacing" textLength="98.1919" x="892" y="412.5669">permite subida</text></g><!--link enPago to vehiculoEnParada--><g id="link_enPago_vehiculoEnParada"><path d="M1017.19,427.82 C983.43,443.57 932.88,465.71 887,480 C814.25,502.66 732.923,517.732 680.803,526.162 " fill="none" id="enPago-to-vehiculoEnParada" style="stroke:#181818;stroke-width:1.0;"/><polygon fill="#181818" points="674.88,527.12,684.4032,529.6317,679.8159,526.3217,683.1259,521.7343,674.88,527.12" style="stroke:#181818;stroke-width:1.0;"/><text fill="#000000" font-family="sans-serif" font-size="13" lengthAdjust="spacing" textLength="86.9438" x="935" y="476.0669">registra pago</text></g><!--link enTransporte to enRuta--><g id="link_enTransporte_enRuta"><path d="M1016.83,526.03 C954.74,517 853.72,500.8 768,480 C699.1,463.29 626.1889,439.1855 581.5989,423.7255 " fill="none" id="enTransporte-to-enRuta" style="stroke:#181818;stroke-width:1.0;"/><polygon fill="#181818" points="575.93,421.76,583.1231,428.4875,580.6541,423.3979,585.7437,420.929,575.93,421.76" style="stroke:#181818;stroke-width:1.0;"/><text fill="#000000" font-family="sans-serif" font-size="13" lengthAdjust="spacing" textLength="109.8525" x="769" y="476.0669">pasajero a bordo</text></g><!--link enRuta to conductorParado--><g id="link_enRuta_conductorParado"><path d="M504.18,388.54 C472.39,370.77 426.27,341.42 395,306 C362.77,269.49 380.6,241.13 344,209 C315.77,184.22 280.9871,171.8187 249.7571,164.3887 " fill="none" id="enRuta-to-conductorParado" style="stroke:#181818;stroke-width:1.0;"/><polygon fill="#181818" points="243.92,163,251.7498,168.9745,248.7842,164.1573,253.6014,161.1917,243.92,163" style="stroke:#181818;stroke-width:1.0;"/><text fill="#000000" font-family="sans-serif" font-size="13" lengthAdjust="spacing" textLength="91.0762" x="396" y="285.5669">fin de servicio</text></g><!--link enTransporte to pasajeroEnParada--><g id="link_enTransporte_pasajeroEnParada"><path d="M1133.12,514.68 C1148.78,506.52 1163.9,495.27 1173,480 C1277.09,305.38 1188.12,368.06 1174,336 C1168.96,324.56 1164.6642,318.4765 1155.3842,310.2265 " fill="none" id="enTransporte-to-pasajeroEnParada" style="stroke:#181818;stroke-width:1.0;"/><polygon fill="#181818" points="1150.9,306.24,1154.9686,315.2092,1154.6368,309.5621,1160.2839,309.2303,1150.9,306.24" style="stroke:#181818;stroke-width:1.0;"/><text fill="#000000" font-family="sans-serif" font-size="13" lengthAdjust="spacing" textLength="116.4414" x="1221" y="412.5669">bajada en destino</text></g><!--SRC=[VPInRjmm38PtFmMH9K20lC0DNT9aFYH5bo83p-Qv2XJ9eEGCAVf8dV88UR5GiknAif8Rxdm_Vuda9rgNy9tEogXUlRyP60YqTK3Euo2_4olJgmarkKuaJt1ZpJ3ttZBywK0-YtfnQs12nW4l01tqg-aOD5iPbsZCbxbxPKqq_hfwXElhRyrDAYtpXULma3_FYimhWaRWsMEsAZeQ6ykgqEH0yjNqXu8Ee3MD2AW5aVFAV5xFOXUa0QOZVX6qjllR9O0_wRVgPsrBVdSpCUOB8fbpK1_MBKgAeRje8dE_DjeyZ9UKyDR48h60lCzGAD6p98YOHCkufa3mr4d47Kg8jbsisDIfSQRYkB9jFq6_mJoYmoTY-zKmJibJz9yxHviu7kMnYdf6uoRBdfBdnoOK79j9QZ4r7j9iNP66q-nItp7Isaxin6ovzkNrHEIYE_JAdJ5CPJhImlKrraku9urXz2bqwvcskq26Sr1dOb6Nc1fGLdQjTw0SeeEWKwF1xOgHYNZ_5qQYgrwrRIeMdRhcx3JeJCJFIhfpyqdAwZ94ZSba6fMJausykXsThOWr3o2SBCiL97WUvAvWQzJh_sxgLpsRt_rLipTNsHlDdV0fF91PJ-e3]--></g></svg>